<svg width="144" height="84" viewBox="0 0 144 84" fill="none" xmlns="http://www.w3.org/2000/svg">
<path d="M30.2037 72.8777L30.1604 55.3224L21.5197 69.7863H18.4554L9.85809 55.7V72.8831H3.48047V43.6152H9.10014L20.0904 61.8017L30.9129 43.6152H36.4947L36.5813 72.8777H30.2037Z" fill="#002A3A"/>
<path d="M64.7229 60.0418V72.8765H58.5997V70.0765C57.3815 72.1266 55.0319 73.211 51.7186 73.211C46.4346 73.211 43.2891 70.2869 43.2891 66.3971C43.2891 62.4264 46.0989 59.6642 52.98 59.6642H58.1828C58.1828 56.8642 56.5045 55.2349 52.98 55.2349C50.5871 55.2349 48.1129 56.028 46.4779 57.3228L44.1282 52.764C46.6024 51.0106 50.2514 50.0449 53.8625 50.0449C60.7382 50.0557 64.7229 53.228 64.7229 60.0418ZM58.1774 65.7713V63.4731H53.6892C50.625 63.4731 49.6613 64.6006 49.6613 66.1058C49.6613 67.7351 51.0472 68.8249 53.3536 68.8249C55.5354 68.8249 57.4249 67.8214 58.1774 65.7713Z" fill="#002A3A"/>
<path d="M86.3238 50.0566V56.0774C85.777 56.0343 85.3601 55.9911 84.8566 55.9911C81.2509 55.9911 78.858 57.9549 78.858 62.2601V72.8774H72.3125V50.3911H78.5602V53.3584C80.1573 51.1842 82.8426 50.0566 86.3238 50.0566Z" fill="#002A3A"/>
<path d="M107.63 64.7678L112.708 67.5247C111.155 70.9937 107.63 73.0438 103.142 73.211L102.72 74.9644C105.281 75.2557 106.369 76.7178 106.369 78.4334C106.369 80.9852 103.938 82.5713 100.202 82.5713C98.7351 82.5713 97.2679 82.2368 96.2988 81.6919L97.3058 78.8919C98.1017 79.2696 99.0274 79.5177 100.034 79.5177C101.588 79.5177 102.216 78.9729 102.216 78.1798C102.216 77.4677 101.632 76.9659 100.159 76.9659H98.7351L99.7421 72.952C93.9113 71.8677 90.0078 67.4761 90.0078 61.6226C90.0078 54.8519 95.2539 50.0449 102.595 50.0449C107.338 50.0449 111.068 52.095 112.703 55.7744L107.625 58.4935C106.407 56.3625 104.604 55.4021 102.547 55.4021C99.2332 55.4021 96.6291 57.7004 96.6291 61.6334C96.6291 65.5609 99.2278 67.8592 102.547 67.8592C104.609 67.8592 106.412 66.942 107.63 64.7678Z" fill="#002A3A"/>
<path d="M116.188 61.6343C116.188 54.8636 121.434 50.0566 128.607 50.0566C135.781 50.0566 140.983 54.8636 140.983 61.6343C140.983 68.405 135.781 73.2119 128.607 73.2119C121.434 73.2119 116.188 68.405 116.188 61.6343ZM134.351 61.6343C134.351 57.7445 131.877 55.4031 128.602 55.4031C125.326 55.4031 122.814 57.7445 122.814 61.6343C122.814 65.5241 125.332 67.8601 128.602 67.8601C131.872 67.8601 134.351 65.5241 134.351 61.6343Z" fill="#002A3A"/>
<path d="M19.3918 6.19336C24.3618 6.19336 27.1499 8.74519 27.1499 13.4658C27.1499 17.2747 25.3146 19.4057 21.1513 20.3606L10.41 22.7614C8.61261 23.1822 8.27153 24.1317 8.27153 25.5776V26.8724C8.27153 27.2932 8.42312 27.4065 8.76961 27.4065H26.4678V31.9005H5.90023C4.44929 31.9005 3.76172 31.2153 3.76172 29.8072V25.9228C3.76172 21.7309 5.02317 19.5244 9.41929 18.5317L20.2742 16.0554C22.1096 15.6346 22.6834 14.7606 22.6834 13.5413C22.6834 11.8257 21.5736 10.6874 19.5109 10.6874H4.60088V6.19336H19.3918Z" fill="#002A3A"/>
<path d="M33.0772 6.19336C37.7765 6.19336 39.0758 7.8712 39.0758 12.3275V31.9059H34.566V12.6296C34.566 11.2593 34.0679 10.6874 32.6928 10.6874H30.3594V6.19336H33.0772Z" fill="#002A3A"/>
<path d="M68.1735 11.793C73.2193 11.793 75.2062 14.6092 75.2062 18.4234V27.87C75.2062 30.7671 74.4428 31.9055 71.0375 31.9055H61.5956C56.815 31.9055 54.8281 29.5802 54.8281 25.7714C54.8281 22.1136 56.6635 19.9826 61.6334 19.9826H71.227V18.4612C71.227 16.902 70.3499 15.6828 68.1302 15.6828H56.0517V11.7984H68.1735V11.793ZM71.2324 26.9529V23.1818H61.7147C59.5762 23.1818 58.8074 24.0558 58.8074 25.5448C58.8074 27.0284 59.6086 27.9833 61.6334 27.9833H70.1171C70.9238 27.9779 71.2324 27.6758 71.2324 26.9529Z" fill="#002A3A"/>
<path d="M106.437 6.19336C111.407 6.19336 114.195 8.74519 114.195 13.4658C114.195 17.2747 112.36 19.4057 108.197 20.3606L97.4554 22.7614C95.658 23.1822 95.3169 24.1317 95.3169 25.5776V26.8724C95.3169 27.2932 95.4685 27.4065 95.815 27.4065H113.513V31.9005H92.951C91.5001 31.9005 90.8125 31.2153 90.8125 29.8072V25.9228C90.8125 21.7309 92.0739 19.5244 96.4701 18.5317L107.325 16.0554C109.16 15.6346 109.734 14.7606 109.734 13.5413C109.734 11.8257 108.624 10.6874 106.562 10.6874H91.6517V6.19336H106.437Z" fill="#002A3A"/>
<path d="M131.478 6.19336C137.558 6.19336 140.118 9.12823 140.118 13.0882C140.118 16.1363 138.819 18.003 136.448 18.9903C138.895 20.0207 140.194 21.9252 140.194 25.0111C140.194 28.8577 137.671 31.9059 131.591 31.9059H118.555V27.4065H131.591C134.228 27.4065 135.489 26.1872 135.489 24.1317C135.489 22.0762 134.152 21.0458 131.554 21.0458H123.6V16.9725H131.434C134.071 16.9725 135.37 16.0176 135.37 13.8866C135.37 11.9444 134.185 10.6874 131.472 10.6874H118.593V6.19336H131.478Z" fill="#002A3A"/>
</svg>
