<svg width="182" height="70" viewBox="0 0 182 70" fill="none" xmlns="http://www.w3.org/2000/svg">
<g clip-path="url(#clip0_143_1291)">
<path d="M46.3161 1.50195H37.4944C35.3513 1.50195 34.5 2.29918 34.5 4.76596V22.5245H38.789V6.16111C38.789 5.7625 38.9505 5.56319 39.3145 5.56319H46.3131C50.8047 5.56319 52.7481 7.3945 52.7481 10.6989V22.5245H57.0783V10.6989C57.0783 4.88728 53.5584 1.50195 46.3161 1.50195Z" fill="white"/>
<path d="M74.3531 10.2223H69.3361C66.9494 10.2223 66.3006 9.42512 66.3006 7.95198C66.3006 6.36042 67.1108 5.56319 69.0924 5.56319H80.9085V1.50195H69.0542C64.0783 1.50195 62.0938 3.85031 62.0938 7.63425C62.0938 10.8578 63.5498 13.7665 69.4594 13.7665H74.5175C76.6635 13.7665 77.553 14.4424 77.553 16.1149C77.553 17.7469 76.7428 18.4228 74.7612 18.4228H62.3403V22.5245H74.7612C79.7782 22.5245 81.7598 19.8959 81.7598 16.1553C81.7569 12.8884 80.2626 10.2223 74.3531 10.2223Z" fill="white"/>
<path d="M100.488 -0.00585938H94.5816C89.4441 -0.00585938 86.7316 2.94041 86.7316 8.99183V21.9699V25.8376C86.7316 26.993 86.2854 27.51 85.2344 27.51H84.75V31.525H86.0857C89.4441 31.525 91.0235 29.7717 91.0235 26.2304V25.2743V21.9699V21.0138H100.491C106.157 21.0138 109.715 17.5909 109.715 10.5025C109.715 3.41702 106.154 -0.00585938 100.488 -0.00585938ZM100.042 16.915H91.0177V9.19114C91.0177 5.56895 92.3534 4.05538 95.8322 4.05538H100.039C103.761 4.05538 105.379 5.96757 105.379 10.5054C105.385 15.0432 103.764 16.915 100.042 16.915Z" fill="white"/>
<path d="M119.148 1.50195H114.859V22.5216H119.148V1.50195Z" fill="white"/>
<path d="M28.3471 7.63425V22.5245H24.0581V8.27261C24.0581 6.44129 23.2097 5.56608 21.3074 5.56608H19.0234V1.50195H22.5609C26.7707 1.50195 28.3471 3.41414 28.3471 7.63425Z" fill="white"/>
<path d="M24.0625 42.7075V57.5978H28.3515V43.3459C28.3515 41.5146 29.1999 40.6394 31.1022 40.6394H38.6293V36.5781H29.8487C25.6419 36.5752 24.0625 38.4874 24.0625 42.7075Z" fill="white"/>
<path d="M56.5063 36.5762H43.6804V40.6374H56.4652C58.8108 40.6374 59.7414 41.9112 59.7414 43.5432V45.1348H49.584C44.3233 45.1348 42.3828 47.3647 42.3828 51.1862C42.3828 55.1666 44.4877 57.5958 49.5459 57.5958H59.5389C63.141 57.5958 63.9483 56.4 63.9483 53.3757V43.5028C63.9512 39.5224 61.8463 36.5762 56.5063 36.5762ZM59.7444 52.4225C59.7444 53.1793 59.4215 53.497 58.5701 53.497H49.587C47.441 53.497 46.5926 52.5005 46.5926 50.9494C46.5926 49.3954 47.4028 48.4797 49.6692 48.4797H59.7444V52.4225Z" fill="white"/>
<path d="M69.0156 47.0874C69.0156 54.1729 72.5766 57.5987 78.2806 57.5987H89.2864V53.497H78.6857C74.9633 53.497 73.3457 51.6253 73.3457 47.0874C73.3457 42.5496 74.9633 40.6374 78.6857 40.6374H89.2864V36.5762H78.2806C72.5766 36.5762 69.0156 40.0019 69.0156 47.0874Z" fill="white"/>
<path d="M79.091 63.2514C79.091 64.4068 78.6447 64.9238 77.5938 64.9238H77.1094V68.1099H78.4451C81.8035 68.1099 83.3829 66.3565 83.3829 62.8152V58.5547H79.091V63.2514Z" fill="white"/>
<path d="M108.061 36.5762H95.2351V40.6374H108.02C110.366 40.6374 111.296 41.9112 111.296 43.5432V45.1348H101.139C95.878 45.1348 93.9375 47.3647 93.9375 51.1862C93.9375 55.1666 96.0424 57.5958 101.101 57.5958H111.094C114.696 57.5958 115.503 56.4 115.503 53.3757V43.5028C115.506 39.5224 113.404 36.5762 108.061 36.5762ZM111.299 52.4225C111.299 53.1793 110.976 53.497 110.125 53.497H101.142C98.9957 53.497 98.1473 52.5005 98.1473 50.9494C98.1473 49.3954 98.9575 48.4797 101.224 48.4797H111.299V52.4225Z" fill="white"/>
<path d="M112.691 24.623H108.522C108.522 26.2406 107.601 27.5 105.276 27.5H95.5938V31.5208H105.317C110.607 31.5237 112.691 28.5659 112.691 24.623Z" fill="white"/>
<path d="M157.461 24.1348C152.981 24.1348 149.338 27.8407 149.338 32.3959H153.486C153.486 30.0909 155.268 28.2162 157.461 28.2162C159.654 28.2162 161.436 30.0909 161.436 32.3959C161.436 34.7009 159.654 36.5755 157.461 36.5755H134.319H132.772H129.827C124.123 36.5755 120.562 39.9984 120.562 47.0868C120.562 54.1723 124.123 57.5981 129.827 57.5981H134.319C139.985 57.5981 143.584 54.1752 143.584 47.0868C143.584 46.3705 143.543 45.6946 143.472 45.0533H139.116C139.207 45.6628 139.257 46.3358 139.257 47.0868C139.257 51.6246 137.598 53.4964 133.917 53.4964H130.236C126.513 53.4964 124.896 51.6246 124.896 47.0868C124.896 42.549 126.513 40.6368 130.236 40.6368H132.775L142.154 40.6599H157.464C161.944 40.6599 165.587 36.9539 165.587 32.3988C165.587 27.8436 161.941 24.1348 157.461 24.1348Z" fill="white"/>
<path d="M147.633 49.1336H173.875C178.355 49.1336 181.998 45.4276 181.998 40.8724C181.998 36.3173 178.355 32.6113 173.875 32.6113C169.395 32.6113 165.752 36.3173 165.752 40.8724H169.9C169.9 38.5674 171.682 36.6928 173.875 36.6928C176.068 36.6928 177.85 38.5674 177.85 40.8724C177.85 43.1775 176.068 45.0521 173.875 45.0521H147.633C147.694 45.7222 147.733 46.401 147.733 47.0856C147.73 47.7904 147.694 48.4721 147.633 49.1336Z" fill="white"/>
<path d="M81.6763 27.5098H8.12301C3.64317 27.5098 0 31.2619 0 35.8749C0 40.4878 3.64317 44.24 8.12301 44.24C12.6028 44.24 16.246 40.4878 16.246 35.8749H12.0979C12.0979 38.2723 10.316 40.225 8.12301 40.225C5.93006 40.225 4.14811 38.2723 4.14811 35.8749C4.14811 33.4774 5.93006 31.5248 8.12301 31.5248H81.6763V27.5098Z" fill="white"/>
<path d="M173.878 53.4688H146.69C146.118 55.0343 145.317 56.4035 144.312 57.5502H173.878C176.071 57.5502 177.853 59.4248 177.853 61.7299C177.853 64.0349 176.071 65.9095 173.878 65.9095C171.685 65.9095 169.903 64.0349 169.903 61.7299H165.755C165.755 66.285 169.398 69.991 173.878 69.991C178.358 69.991 182.001 66.285 182.001 61.7299C182.001 57.1747 178.358 53.4688 173.878 53.4688Z" fill="white"/>
<path d="M127.821 14.0642C127.433 14.0642 127.102 13.9978 126.829 13.8678C126.556 13.7349 126.332 13.5616 126.165 13.3478C125.995 13.1312 125.872 12.9001 125.792 12.6488C125.713 12.3975 125.672 12.1578 125.672 11.9238V11.7967C125.672 11.5396 125.713 11.2883 125.795 11.0341C125.877 10.7828 126.001 10.5518 126.171 10.3467C126.341 10.1416 126.558 9.97407 126.829 9.84986C127.099 9.72277 127.419 9.66211 127.786 9.66211C128.17 9.66211 128.502 9.72854 128.781 9.86142C129.06 9.99429 129.283 10.182 129.447 10.4189C129.612 10.6586 129.711 10.9388 129.741 11.2623H129.036C129.004 11.0486 128.933 10.8695 128.819 10.728C128.704 10.5835 128.558 10.4767 128.382 10.4045C128.205 10.3322 128.006 10.2947 127.786 10.2947C127.557 10.2947 127.354 10.3351 127.178 10.416C127.002 10.4969 126.855 10.6066 126.738 10.7482C126.62 10.8897 126.532 11.0544 126.473 11.245C126.412 11.4328 126.382 11.6407 126.382 11.866C126.382 12.0798 126.412 12.282 126.473 12.4697C126.532 12.6575 126.623 12.825 126.743 12.9723C126.864 13.1168 127.013 13.2294 127.195 13.3103C127.375 13.3912 127.586 13.4316 127.821 13.4316C128.161 13.4316 128.449 13.3478 128.681 13.1832C128.913 13.0185 129.057 12.7788 129.107 12.4697H129.817C129.779 12.7644 129.676 13.033 129.515 13.2756C129.35 13.5183 129.13 13.7118 128.845 13.8533C128.561 13.9949 128.22 14.0642 127.821 14.0642Z" fill="white"/>
<path d="M133.688 14.0642C133.304 14.0642 132.972 13.9978 132.696 13.8678C132.417 13.7349 132.188 13.5616 132.006 13.345C131.824 13.1283 131.689 12.8943 131.601 12.643C131.513 12.3917 131.469 12.1549 131.469 11.9238V11.7967C131.469 11.5454 131.516 11.2912 131.607 11.0399C131.698 10.7886 131.836 10.5575 132.021 10.3496C132.206 10.1416 132.435 9.97407 132.713 9.84986C132.992 9.72277 133.315 9.66211 133.688 9.66211C134.061 9.66211 134.384 9.72566 134.66 9.84986C134.936 9.97696 135.165 10.1416 135.353 10.3496C135.538 10.5575 135.679 10.7886 135.77 11.0399C135.861 11.2912 135.907 11.5425 135.907 11.7967V11.9238C135.907 12.152 135.863 12.3917 135.772 12.643C135.684 12.8943 135.549 13.1283 135.367 13.345C135.188 13.5616 134.956 13.7378 134.677 13.8678C134.399 13.9978 134.07 14.0642 133.688 14.0642ZM133.688 13.4287C133.92 13.4287 134.131 13.3854 134.316 13.3016C134.501 13.2179 134.663 13.1023 134.795 12.9579C134.927 12.8135 135.027 12.6459 135.094 12.4611C135.162 12.2733 135.197 12.0769 135.197 11.866C135.197 11.6436 135.162 11.4385 135.091 11.2508C135.021 11.063 134.921 10.8955 134.792 10.754C134.663 10.6095 134.504 10.4998 134.316 10.4189C134.128 10.338 133.92 10.2976 133.688 10.2976C133.456 10.2976 133.245 10.338 133.06 10.4189C132.875 10.4998 132.713 10.6095 132.581 10.754C132.449 10.8984 132.349 11.063 132.282 11.2508C132.214 11.4385 132.179 11.6465 132.179 11.866C132.179 12.0769 132.214 12.2762 132.282 12.4611C132.349 12.6488 132.449 12.8135 132.581 12.9579C132.713 13.1023 132.872 13.2179 133.06 13.3016C133.245 13.3883 133.456 13.4287 133.688 13.4287Z" fill="white"/>
<path d="M137.938 13.9638V9.78125H139.079L141.052 13.3717H141.243L141.126 13.4756V9.78125H141.792V13.9609H140.638L138.666 10.3705H138.475L138.592 10.2665V13.9609H137.938V13.9638Z" fill="white"/>
<path d="M144.102 13.9638V9.78125H144.8V13.9609H144.102V13.9638ZM144.683 10.3792V9.78414H146.532V10.3792H144.683ZM144.683 12.1585V11.5635H146.447V12.1585H144.683Z" fill="white"/>
<path d="M148.523 13.9638V9.78125H149.216V13.9609H148.523V13.9638ZM149.099 10.3792V9.78414H151.036V10.3792H149.099ZM149.099 12.1354V11.5403H150.928V12.1354H149.099ZM149.099 13.9638V13.3688H151.089V13.9638H149.099Z" fill="white"/>
<path d="M153.172 13.9653V9.75391H153.871V13.9625H153.172V13.9653ZM153.645 12.5095V11.9318H154.751C154.919 11.9318 155.062 11.8972 155.183 11.8307C155.303 11.7643 155.394 11.6719 155.459 11.5534C155.523 11.435 155.556 11.2964 155.556 11.1404C155.556 10.9873 155.523 10.8515 155.459 10.7331C155.394 10.6147 155.303 10.5222 155.183 10.4529C155.062 10.3836 154.919 10.3489 154.751 10.3489H153.645V9.75391H154.657C154.983 9.75391 155.268 9.80301 155.509 9.90122C155.749 9.99943 155.934 10.1439 156.066 10.3403C156.199 10.5338 156.263 10.7851 156.263 11.0913V11.1837C156.263 11.4899 156.196 11.7383 156.064 11.9347C155.928 12.1283 155.744 12.2756 155.506 12.3709C155.268 12.4662 154.986 12.5153 154.66 12.5153H153.645V12.5095ZM155.779 13.9653L154.428 12.1283H155.221L156.612 13.9653H155.779Z" fill="white"/>
<path d="M158.461 13.9629V9.78038H159.154V13.96H158.461V13.9629ZM158.596 9.45398L159.347 8.48633H160.164L160.927 9.45398H160.293L159.797 8.81273H159.697L159.212 9.45398H158.596ZM159.036 10.3783V9.78327H160.974V10.3783H159.036ZM159.036 12.1345V11.5395H160.865V12.1345H159.036ZM159.036 13.9629V13.3679H161.027V13.9629H159.036Z" fill="white"/>
<path d="M163.109 13.9638V9.78125H164.251L166.224 13.3717H166.415L166.298 13.4756V9.78125H166.961V13.9609H165.807L163.834 10.3705H163.644L163.761 10.2665V13.9609H163.109V13.9638Z" fill="white"/>
<path d="M171.149 14.0642C170.761 14.0642 170.43 13.9978 170.157 13.8678C169.884 13.7349 169.661 13.5616 169.493 13.3478C169.323 13.1312 169.2 12.9001 169.12 12.6488C169.041 12.3975 169 12.1578 169 11.9238V11.7967C169 11.5396 169.041 11.2883 169.123 11.0341C169.206 10.7828 169.329 10.5518 169.499 10.3467C169.669 10.1416 169.887 9.97407 170.157 9.84986C170.427 9.72277 170.747 9.66211 171.114 9.66211C171.498 9.66211 171.83 9.72854 172.109 9.86142C172.388 9.99429 172.611 10.182 172.775 10.4189C172.94 10.6586 173.04 10.9388 173.069 11.2623H172.364C172.332 11.0486 172.262 10.8695 172.147 10.728C172.033 10.5835 171.886 10.4767 171.71 10.4045C171.533 10.3322 171.334 10.2947 171.114 10.2947C170.885 10.2947 170.682 10.3351 170.506 10.416C170.33 10.4969 170.183 10.6066 170.066 10.7482C169.948 10.8897 169.86 11.0544 169.801 11.245C169.74 11.4328 169.71 11.6407 169.71 11.866C169.71 12.0798 169.74 12.282 169.801 12.4697C169.86 12.6575 169.951 12.825 170.072 12.9723C170.192 13.1168 170.342 13.2294 170.524 13.3103C170.703 13.3912 170.914 13.4316 171.149 13.4316C171.489 13.4316 171.777 13.3478 172.009 13.1832C172.241 13.0185 172.385 12.7788 172.435 12.4697H173.145C173.107 12.7644 173.004 13.033 172.843 13.2756C172.678 13.5183 172.458 13.7118 172.173 13.8533C171.892 13.9949 171.548 14.0642 171.149 14.0642Z" fill="white"/>
<path d="M175.078 13.9638V9.78125H175.777V13.9609H175.078V13.9638Z" fill="white"/>
<path d="M177.664 13.9629L179.155 9.7832H180.315L181.85 13.9629H181.128L179.784 10.2396L180.068 10.3725H179.364L179.666 10.2396L178.363 13.9629H177.664ZM178.63 12.7815L178.85 12.1864H180.632L180.858 12.7815H178.63Z" fill="white"/>
</g>
<defs>
<clipPath id="clip0_143_1291">
<rect width="182" height="70" fill="white"/>
</clipPath>
</defs>
</svg>
