<svg width="899" height="171" viewBox="0 0 899 171" fill="none" xmlns="http://www.w3.org/2000/svg">
<path d="M92.8712 55.5078H62.8503C55.5574 55.5078 52.6602 58.2633 52.6602 66.7895V128.16H67.256V71.6116C67.256 70.2339 67.8055 69.545 69.0443 69.545H92.8613C108.146 69.545 114.76 75.8747 114.76 87.2961V128.17H129.496V87.2961C129.496 67.2088 117.517 55.5078 92.8712 55.5078Z" fill="white"/>
<path d="M188.29 85.6488H171.216C163.094 85.6488 160.886 82.8933 160.886 77.8016C160.886 72.3005 163.644 69.545 170.387 69.545H210.598V55.5078H170.257C153.324 55.5078 146.57 63.6246 146.57 76.7033C146.57 87.8452 151.526 97.8989 171.636 97.8989H188.849C196.152 97.8989 199.179 100.235 199.179 106.016C199.179 111.656 196.422 113.993 189.679 113.993H147.409V128.17H189.679C206.752 128.17 213.496 119.084 213.496 106.155C213.486 94.8638 208.39 85.6488 188.29 85.6488Z" fill="white"/>
<path d="M277.242 55.5078H257.141C239.658 55.5078 230.427 65.6913 230.427 86.6072V131.464V147.698C230.427 151.691 228.909 153.478 225.332 153.478H223.684V164.491H228.229C239.658 164.491 245.033 158.43 245.033 146.19V142.886V131.464V128.16H277.252C296.533 128.16 308.641 116.329 308.641 91.8287C308.631 67.3486 296.523 55.5078 277.242 55.5078ZM275.723 113.993H245.013V87.2961C245.013 74.7765 249.559 69.545 261.397 69.545H275.713C288.381 69.545 293.886 76.1542 293.886 91.8387C293.906 107.523 288.391 113.993 275.723 113.993Z" fill="white"/>
<path d="M340.721 55.5078H326.125V128.16H340.721V55.5078Z" fill="white"/>
<path d="M361.508 76.7033V128.17H376.104V78.9098C376.104 72.58 378.991 69.555 385.465 69.555H411.08V55.5078H381.199C366.883 55.5078 361.508 62.1171 361.508 76.7033Z" fill="white"/>
<path d="M31.7293 76.7033V128.17H17.1334V78.9098C17.1334 72.58 14.2462 69.555 7.77248 69.555H0V55.5078H12.0384C26.3545 55.5078 31.7293 62.1171 31.7293 76.7033Z" fill="white"/>
<path d="M471.942 55.5078H428.295V69.545H471.803C479.785 69.545 482.952 73.9478 482.952 79.5886V85.0897H448.385C430.483 85.0897 423.879 92.7972 423.879 106.006C423.879 119.763 431.042 128.16 448.255 128.16H482.262C494.521 128.16 497.268 124.026 497.268 113.573V79.4589C497.278 65.6912 490.115 55.5078 471.942 55.5078ZM482.962 110.279C482.962 112.894 481.863 113.993 478.966 113.993H448.395C441.092 113.993 438.205 110.548 438.205 105.187C438.205 99.8257 440.962 96.6509 448.675 96.6509H482.962V110.279Z" fill="white"/>
<path d="M514.492 91.8387C514.492 116.329 526.61 128.17 546.022 128.17H583.475V113.993H547.4C534.733 113.993 529.228 107.523 529.228 91.8387C529.228 76.1542 534.733 69.545 547.4 69.545H583.475V55.5078H546.022C526.61 55.5078 514.492 67.3486 514.492 91.8387Z" fill="white"/>
<path d="M548.779 147.708C548.779 151.701 547.26 153.488 543.684 153.488H542.035V164.5H546.581C558.01 164.5 563.384 158.44 563.384 146.2V131.474H548.789V147.708H548.779Z" fill="white"/>
<path d="M647.364 55.5078H603.716V69.545H647.224C655.207 69.545 658.374 73.9478 658.374 79.5886V85.0897H623.807C605.904 85.0897 599.301 92.7972 599.301 106.006C599.301 119.763 606.464 128.16 623.677 128.16H657.684C669.942 128.16 672.69 124.026 672.69 113.573V79.4589C672.7 65.6912 665.547 55.5078 647.364 55.5078ZM658.384 110.279C658.384 112.894 657.285 113.993 654.387 113.993H623.817C616.514 113.993 613.627 110.548 613.627 105.187C613.627 99.8257 616.384 96.6509 624.097 96.6509H658.384V110.279Z" fill="white"/>
<path d="M665.456 22.1108H652.898C652.898 27.0628 650.121 30.9165 643.118 30.9165H604.965V43.2265H643.238C659.172 43.2265 665.456 34.1812 665.456 22.1108Z" fill="white"/>
<path d="M815.49 12.5073C800.245 12.5073 787.847 25.3165 787.847 41.0609H801.963C801.963 33.0938 808.028 26.6144 815.49 26.6144C822.953 26.6144 829.017 33.0938 829.017 41.0609C829.017 49.0279 822.953 55.5074 815.49 55.5074H736.737H731.472H721.451C702.04 55.5074 689.922 67.3381 689.922 91.8383C689.922 116.328 702.04 128.169 721.451 128.169H736.737C756.018 128.169 768.266 116.338 768.266 91.8383C768.266 89.3623 768.126 87.0261 767.886 84.8097H753.061C753.37 86.9163 753.54 89.2425 753.54 91.8383C753.54 107.523 747.896 113.992 735.368 113.992H722.84C710.172 113.992 704.668 107.523 704.668 91.8383C704.668 76.1538 710.172 69.5446 722.84 69.5446H731.482L763.401 69.6244H815.5C830.746 69.6244 843.144 56.8153 843.144 41.0709C843.144 25.3265 830.736 12.5073 815.49 12.5073Z" fill="white"/>
<path d="M782.049 98.9274H871.353C886.598 98.9274 898.996 86.1183 898.996 70.3739C898.996 54.6295 886.598 41.8203 871.353 41.8203C856.107 41.8203 843.709 54.6295 843.709 70.3739H857.826C857.826 62.4068 863.89 55.9274 871.353 55.9274C878.815 55.9274 884.88 62.4068 884.88 70.3739C884.88 78.3409 878.815 84.8204 871.353 84.8204H782.039C782.249 87.1366 782.379 89.4828 782.379 91.8489C782.379 94.275 782.259 96.6312 782.049 98.9274Z" fill="white"/>
<path d="M871.355 113.893H778.834C776.886 119.304 774.159 124.036 770.742 128H871.355C878.818 128 884.882 134.479 884.882 142.446C884.882 150.413 878.818 156.893 871.355 156.893C863.892 156.893 857.828 150.413 857.828 142.446H843.712C843.712 158.191 856.11 171 871.355 171C886.6 171 898.998 158.191 898.998 142.446C898.998 126.702 886.6 113.893 871.355 113.893Z" fill="white"/>
<path d="M331.629 22.5333C330.091 22.5333 328.772 22.2637 327.683 21.7346C326.594 21.2054 325.715 20.4966 325.046 19.628C324.376 18.7594 323.877 17.8209 323.567 16.8026C323.258 15.7842 323.098 14.8158 323.098 13.8773V13.3682C323.098 12.3398 323.257 11.3115 323.587 10.2932C323.917 9.27482 324.406 8.34633 325.076 7.51767C325.745 6.68902 326.614 6.01013 327.693 5.50095C328.762 4.99178 330.031 4.74219 331.5 4.74219C333.028 4.74219 334.347 5.01175 335.456 5.55087C336.565 6.09 337.454 6.83878 338.103 7.8072C338.752 8.77563 339.152 9.90379 339.272 11.2216H336.475C336.355 10.363 336.065 9.63423 335.606 9.05517C335.146 8.47611 334.567 8.03683 333.867 7.7473C333.168 7.45777 332.379 7.30801 331.49 7.30801C330.58 7.30801 329.771 7.46775 329.072 7.79722C328.373 8.1167 327.783 8.56597 327.324 9.13504C326.864 9.70412 326.504 10.373 326.275 11.1318C326.045 11.8906 325.915 12.7292 325.915 13.6377C325.915 14.5063 326.035 15.315 326.275 16.0738C326.514 16.8325 326.874 17.5114 327.354 18.1005C327.833 18.6895 328.432 19.1388 329.152 19.4682C329.871 19.7877 330.7 19.9574 331.639 19.9574C332.998 19.9574 334.137 19.618 335.066 18.9491C335.995 18.2802 336.555 17.3217 336.754 16.0738H339.582C339.422 17.2618 339.022 18.3401 338.373 19.3285C337.724 20.3169 336.834 21.0856 335.705 21.6647C334.577 22.2437 333.228 22.5333 331.629 22.5333Z" fill="white"/>
<path d="M357.306 22.5333C355.777 22.5333 354.459 22.2637 353.36 21.7346C352.261 21.2054 351.342 20.4966 350.612 19.618C349.883 18.7394 349.354 17.791 349.004 16.7826C348.654 15.7742 348.484 14.8058 348.484 13.8773V13.3682C348.484 12.3498 348.664 11.3315 349.024 10.3131C349.383 9.29478 349.933 8.36629 350.672 7.52766C351.402 6.68902 352.321 6.01013 353.43 5.50095C354.529 4.99178 355.827 4.74219 357.306 4.74219C358.784 4.74219 360.073 4.99178 361.172 5.50095C362.271 6.01013 363.19 6.68902 363.929 7.52766C364.669 8.36629 365.218 9.29478 365.588 10.3131C365.947 11.3315 366.127 12.3498 366.127 13.3682V13.8773C366.127 14.8058 365.947 15.7742 365.598 16.7826C365.238 17.791 364.709 18.7394 363.989 19.618C363.27 20.4966 362.361 21.2054 361.242 21.7346C360.123 22.2637 358.814 22.5333 357.306 22.5333ZM357.306 19.9674C358.235 19.9674 359.064 19.7977 359.803 19.4583C360.543 19.1188 361.172 18.6596 361.702 18.0705C362.231 17.4815 362.621 16.8126 362.89 16.0538C363.16 15.295 363.3 14.4963 363.3 13.6477C363.3 12.7492 363.16 11.9205 362.88 11.1617C362.601 10.403 362.201 9.72408 361.692 9.14503C361.182 8.56597 360.543 8.1167 359.803 7.78724C359.064 7.46775 358.225 7.29803 357.306 7.29803C356.387 7.29803 355.548 7.45777 354.808 7.78724C354.069 8.10672 353.43 8.56597 352.91 9.14503C352.391 9.72408 351.991 10.393 351.721 11.1617C351.451 11.9205 351.312 12.7492 351.312 13.6477C351.312 14.4963 351.451 15.295 351.721 16.0538C351.991 16.8126 352.391 17.4815 352.91 18.0705C353.44 18.6596 354.069 19.1188 354.808 19.4583C355.548 19.7977 356.377 19.9674 357.306 19.9674Z" fill="white"/>
<path d="M376.516 22.1145V5.23193H381.051L388.904 19.7383H389.663L389.203 20.1577V5.23193H391.841V22.1145H387.255L379.413 7.60807H378.654L379.113 7.18875V22.1045H376.516V22.1145Z" fill="white"/>
<path d="M403.32 22.1145V5.23193H406.098V22.1145H403.32ZM405.638 7.63802V5.23193H413.001V7.63802H405.638ZM405.638 14.8263V12.4202H412.651V14.8263H405.638Z" fill="white"/>
<path d="M423.23 22.1145V5.23193H425.988V22.1145H423.23ZM425.518 7.63802V5.23193H433.231V7.63802H425.518ZM425.518 14.7365V12.3304H432.791V14.7365H425.518ZM425.518 22.1145V19.7084H433.431V22.1145H425.518Z" fill="white"/>
<path d="M444.012 22.1132V5.11084H446.789V22.1132H444.012ZM445.89 16.2427V13.9065H450.286C450.945 13.9065 451.524 13.7668 451.994 13.4972C452.474 13.2276 452.843 12.8582 453.093 12.379C453.343 11.8998 453.473 11.3507 453.473 10.7117C453.473 10.0927 453.343 9.54363 453.093 9.06441C452.843 8.58519 452.474 8.20581 451.994 7.92626C451.514 7.64672 450.945 7.50694 450.286 7.50694H445.89V5.11084H449.916C451.215 5.11084 452.334 5.31052 453.293 5.69988C454.252 6.08925 454.991 6.67829 455.511 7.46701C456.03 8.25573 456.3 9.26409 456.3 10.5021V10.8715C456.3 12.1095 456.03 13.1178 455.501 13.9065C454.971 14.6953 454.232 15.2843 453.283 15.6637C452.334 16.053 451.215 16.2427 449.916 16.2427H445.89ZM454.382 22.1132L449.007 14.6853H452.154L457.688 22.1132H454.382Z" fill="white"/>
<path d="M467.387 22.114V5.23149H470.144V22.114H467.387ZM467.926 3.91363L470.913 0H474.15L477.187 3.91363H474.66L472.692 1.32784H472.302L470.384 3.91363H467.926ZM469.685 7.63758V5.23149H477.397V7.63758H469.685ZM469.685 14.736V12.3299H476.957V14.736H469.685ZM469.685 22.114V19.7079H477.597V22.114H469.685Z" fill="white"/>
<path d="M488.176 22.1145V5.23193H492.711L500.564 19.7383H501.323L500.864 20.1577V5.23193H503.501V22.1145H498.915L491.073 7.60807H490.314L490.773 7.18875V22.1045H488.176V22.1145Z" fill="white"/>
<path d="M522.465 22.5333C520.927 22.5333 519.608 22.2637 518.519 21.7346C517.43 21.2054 516.551 20.4966 515.882 19.628C515.212 18.7594 514.713 17.8209 514.403 16.8026C514.093 15.7842 513.934 14.8158 513.934 13.8773V13.3682C513.934 12.3398 514.093 11.3115 514.423 10.2932C514.753 9.27482 515.242 8.34633 515.912 7.51767C516.581 6.68902 517.45 6.01013 518.529 5.50095C519.598 4.99178 520.867 4.74219 522.335 4.74219C523.864 4.74219 525.183 5.01175 526.292 5.55087C527.401 6.09 528.29 6.83878 528.939 7.8072C529.588 8.77563 529.988 9.90379 530.108 11.2216H527.311C527.191 10.363 526.901 9.63423 526.442 9.05517C525.982 8.47611 525.403 8.03683 524.703 7.7473C524.004 7.45777 523.215 7.30801 522.325 7.30801C521.416 7.30801 520.607 7.46775 519.908 7.79722C519.208 8.1167 518.619 8.56597 518.159 9.13504C517.7 9.70412 517.34 10.373 517.111 11.1318C516.881 11.8906 516.751 12.7292 516.751 13.6377C516.751 14.5063 516.871 15.315 517.111 16.0738C517.35 16.8325 517.71 17.5114 518.189 18.1005C518.669 18.6895 519.268 19.1388 519.988 19.4682C520.707 19.7877 521.536 19.9574 522.475 19.9574C523.834 19.9574 524.973 19.618 525.902 18.9491C526.831 18.2802 527.391 17.3217 527.59 16.0738H530.418C530.258 17.2618 529.858 18.3401 529.209 19.3285C528.559 20.3169 527.67 21.0856 526.541 21.6647C525.412 22.2437 524.054 22.5333 522.465 22.5333Z" fill="white"/>
<path d="M540.426 22.1145V5.23193H543.203V22.1145H540.426Z" fill="white"/>
<path d="M552.996 22.1145L558.92 5.23193H563.526L569.64 22.1145H566.773L561.428 7.07893L562.567 7.60807H559.77L560.968 7.07893L555.783 22.1145H552.996ZM556.832 17.3522L557.712 14.9461H564.795L565.694 17.3522H556.832Z" fill="white"/>
</svg>
