<svg width="226" height="50" viewBox="0 0 226 50" fill="none" xmlns="http://www.w3.org/2000/svg">
<path d="M26.1451 42.1578C16.0799 42.1578 7.89209 34.0204 7.89209 24.0171C7.89209 14.0138 16.0799 5.87646 26.1451 5.87646V10.7785C18.8 10.7785 12.8245 16.7172 12.8245 24.0171C12.8245 31.317 18.8 37.2557 26.1451 37.2557C29.0162 37.2557 31.7473 36.3637 34.0474 34.6751L34.1325 34.6096C38.6862 31.2106 44.1127 29.4129 49.8247 29.4129C53.2969 29.4129 56.6702 30.0785 59.8515 31.3934L57.9575 35.9217C55.3802 34.8551 52.6408 34.3177 49.8219 34.3177C45.2189 34.3177 40.8464 35.7553 37.1683 38.4778L37.0667 38.5569C33.8937 40.9111 30.1196 42.1578 26.1451 42.1578Z" fill="url(#paint0_linear_85_226)"/>
<path d="M26.1417 34.314C20.4297 34.314 15.7827 29.6956 15.7827 24.0188C15.7827 18.342 20.4297 13.7236 26.1417 13.7236C27.5003 13.7236 28.8206 13.9801 30.0667 14.4902L28.1948 19.0267C27.5443 18.7621 26.8526 18.6284 26.1417 18.6284C23.1498 18.6284 20.7152 21.0481 20.7152 24.0215C20.7152 26.995 23.1498 29.4146 26.1417 29.4146C27.3274 29.4146 28.45 29.0436 29.3943 28.3398C29.4025 28.3344 30.0256 27.8733 30.3824 27.6251L33.2013 31.646C32.8912 31.8616 32.3532 32.2571 32.3477 32.2626C30.5526 33.602 28.4034 34.314 26.1417 34.314Z" fill="url(#paint1_linear_85_226)"/>
<path d="M36.6121 29.6187L34.3477 25.2622C35.8244 24.5039 36.829 24.1192 36.8701 24.1029C40.9407 22.4279 45.3187 21.5659 49.8257 21.5659V26.468C45.9692 26.468 42.228 27.2045 38.6982 28.6558C38.6323 28.6831 37.8253 28.9968 36.6121 29.6187Z" fill="url(#paint2_linear_85_226)"/>
<path d="M26.1444 50.002C11.7286 50.002 0 38.3456 0 24.0185C0 13.467 6.33778 4.03927 16.1478 0.00195312L18.0362 4.5303C10.0762 7.80653 4.93244 15.4556 4.93244 24.0185C4.93244 35.6422 14.4487 45.0999 26.1444 45.0999C30.6843 45.0999 34.9992 43.7005 38.6443 41.0517L38.8666 40.8853C42.0479 38.5092 45.8357 37.2544 49.8212 37.2544V42.1565C46.9858 42.1565 44.2904 43.0239 42.0122 44.6689L41.831 44.8025C37.2801 48.207 31.8563 50.002 26.1444 50.002Z" fill="url(#paint3_linear_85_226)"/>
<path d="M77.4502 31.8675V8.44287H82.7449V31.8675H77.4502Z" fill="white"/>
<path d="M88.104 32.0605V8.24854H93.2697V32.0578H88.104V32.0605ZM92.6247 21.2443V18.069H97.2744C98.2626 18.069 98.9927 17.8126 99.4538 17.2998C99.9149 16.7869 100.148 16.1022 100.148 15.2456C100.148 14.3482 99.9149 13.6471 99.4538 13.1451C98.9927 12.6432 98.2626 12.3895 97.2744 12.3895H92.6247V8.24854H96.9505C99.6624 8.24854 101.746 8.81594 103.198 9.95076C104.65 11.0856 105.377 12.7005 105.377 14.7955V15.2784C105.377 16.7324 105.007 17.8999 104.263 18.7756C103.522 19.654 102.52 20.2841 101.26 20.6687C100 21.0534 98.5645 21.2471 96.9505 21.2471H92.6247V21.2443ZM92.6247 32.0605V27.9223H98.1473C99.1354 27.9223 99.8793 27.6659 100.376 27.153C100.87 26.6402 101.12 25.9118 101.12 24.9707C101.12 24.0295 100.873 23.3066 100.376 22.8047C99.882 22.3028 99.1382 22.0518 98.1473 22.0518H92.6247V18.871H97.8893C99.5252 18.871 100.977 19.0702 102.248 19.4657C103.519 19.8613 104.518 20.4996 105.251 21.3753C105.981 22.2537 106.349 23.4403 106.349 24.9379V25.388C106.349 26.7793 106.025 27.9714 105.38 28.9671C104.732 29.9628 103.785 30.7266 102.539 31.2612C101.29 31.7959 99.7393 32.0633 97.8893 32.0633H92.6247V32.0605Z" fill="white"/>
<path d="M132.343 18.1023V14.2832H139.897V18.1023H132.343ZM136.735 12.551C135.766 12.551 135.05 12.3 134.589 11.7981C134.125 11.2961 133.894 10.6578 133.894 9.88854C133.894 9.09745 134.125 8.45093 134.589 7.94626C135.05 7.44433 135.766 7.19336 136.735 7.19336C137.704 7.19336 138.42 7.44433 138.881 7.94626C139.343 8.4482 139.576 9.09745 139.576 9.88854C139.576 10.6578 139.345 11.2961 138.881 11.7981C138.418 12.3 137.704 12.551 136.735 12.551ZM134.701 31.8674V14.2832H139.9V31.8674H134.701Z" fill="white"/>
<path d="M151.94 32.4458C150.713 32.4458 149.583 32.2221 148.55 31.772C147.516 31.3219 146.629 30.6972 145.885 29.8952C145.141 29.0932 144.565 28.1466 144.159 27.0554C143.75 25.9643 143.544 24.7885 143.544 23.5255V22.7863C143.544 21.5232 143.739 20.3475 144.126 19.2563C144.513 18.1652 145.067 17.2077 145.789 16.3838C146.511 15.56 147.376 14.9189 148.389 14.4579C149.401 13.9996 150.53 13.7678 151.778 13.7678C153.197 13.7678 154.427 14.0733 155.459 14.6816C156.494 15.2899 157.298 16.1902 157.88 17.3768C158.462 18.5634 158.783 20.0229 158.849 21.7578L157.493 20.5057V8.44287H162.692V31.8675H158.591V24.584H159.302C159.236 26.2534 158.887 27.6747 158.253 28.8504C157.619 30.0262 156.763 30.9209 155.687 31.5292C154.611 32.1403 153.362 32.4458 151.94 32.4458ZM153.266 28.1466C154.043 28.1466 154.762 27.9693 155.429 27.6174C156.096 27.2655 156.628 26.7472 157.026 26.0625C157.424 25.3778 157.625 24.554 157.625 23.591V22.4044C157.625 21.4632 157.422 20.6776 157.013 20.0447C156.604 19.4146 156.066 18.9263 155.399 18.5853C154.732 18.2443 154.01 18.0724 153.236 18.0724C152.374 18.0724 151.605 18.2852 150.927 18.7135C150.25 19.1418 149.717 19.7364 149.33 20.4948C148.943 21.2559 148.748 22.137 148.748 23.1409C148.748 24.1666 148.943 25.0559 149.33 25.8033C149.717 26.5535 150.255 27.1291 150.944 27.5356C151.63 27.942 152.404 28.1466 153.266 28.1466Z" fill="white"/>
<path d="M172.411 32.3171C171.14 32.3171 170.029 32.0934 169.071 31.6433C168.113 31.1932 167.364 30.5467 166.826 29.701C166.288 28.8553 166.019 27.846 166.019 26.6676C166.019 25.3827 166.351 24.3297 167.02 23.5059C167.687 22.6821 168.623 22.0737 169.831 21.6782C171.036 21.2826 172.425 21.0835 173.995 21.0835H177.772V23.9396H173.962C173.059 23.9396 172.365 24.1606 171.879 24.5971C171.393 25.0363 171.151 25.6282 171.151 26.3784C171.151 27.0849 171.393 27.6578 171.879 28.0943C172.362 28.5335 173.056 28.7517 173.962 28.7517C174.544 28.7517 175.065 28.6508 175.527 28.4462C175.99 28.2443 176.372 27.8951 176.674 27.4041C176.976 26.9131 177.146 26.2284 177.19 25.35L178.417 26.6348C178.31 27.8542 178.013 28.8799 177.528 29.7146C177.042 30.5494 176.377 31.1904 175.527 31.6405C174.678 32.0907 173.638 32.3171 172.411 32.3171ZM178.063 31.867V26.6676H177.19V21.0535C177.19 20.1342 176.976 19.4549 176.545 19.0157C176.114 18.5766 175.425 18.3583 174.478 18.3583C174.006 18.3583 173.38 18.3692 172.606 18.3911C171.829 18.4129 171.028 18.4402 170.199 18.4702C169.37 18.5029 168.621 18.5411 167.954 18.582V14.2501C168.47 14.2064 169.063 14.1655 169.73 14.1219C170.397 14.0782 171.085 14.0482 171.796 14.0264C172.507 14.0046 173.174 13.9937 173.797 13.9937C175.606 13.9937 177.127 14.2501 178.365 14.7629C179.603 15.2758 180.544 16.0532 181.192 17.0898C181.837 18.1292 182.161 19.4604 182.161 21.0862V31.867H178.063Z" fill="white"/>
<path d="M193.817 32.4458C192.591 32.4458 191.46 32.2221 190.428 31.772C189.396 31.3219 188.506 30.6972 187.762 29.8952C187.021 29.0932 186.445 28.1466 186.036 27.0554C185.627 25.9643 185.424 24.7885 185.424 23.5255V22.7863C185.424 21.5232 185.619 20.3475 186.006 19.2563C186.393 18.1652 186.947 17.2077 187.669 16.3838C188.391 15.56 189.256 14.9189 190.268 14.4579C191.279 13.9996 192.409 13.7678 193.658 13.7678C195.08 13.7678 196.307 14.0733 197.339 14.6816C198.371 15.2899 199.178 16.1902 199.76 17.3768C200.342 18.5634 200.663 20.0229 200.729 21.7578L199.373 20.5057V8.44287H204.572V31.8675H200.471V24.584H201.182C201.116 26.2534 200.767 27.6747 200.131 28.8504C199.496 30.0262 198.64 30.9209 197.564 31.5292C196.488 32.1403 195.239 32.4458 193.817 32.4458ZM195.143 28.1466C195.917 28.1466 196.639 27.9693 197.306 27.6174C197.973 27.2655 198.506 26.7472 198.904 26.0625C199.302 25.3778 199.502 24.554 199.502 23.591V22.4044C199.502 21.4632 199.296 20.6776 198.887 20.0447C198.478 19.4146 197.94 18.9263 197.273 18.5853C196.606 18.2443 195.884 18.0724 195.11 18.0724C194.248 18.0724 193.48 18.2852 192.802 18.7135C192.124 19.1418 191.591 19.7364 191.204 20.4948C190.817 21.2559 190.622 22.137 190.622 23.1409C190.622 24.1666 190.817 25.0559 191.204 25.8033C191.591 26.5535 192.129 27.1291 192.818 27.5356C193.507 27.942 194.281 28.1466 195.143 28.1466Z" fill="white"/>
<path d="M225.981 22.7442C225.794 19.7216 224.507 13.6738 217.167 13.6738C211.79 13.6738 208.126 17.7603 208.126 22.7551V23.3961C208.126 27.8617 211.395 32.5101 217.362 32.5101C220.974 32.5101 223.072 30.9825 224.271 29.3812L220.906 26.4323C220.689 26.9588 220.283 27.4034 219.687 27.7608C219.086 28.1236 218.309 28.3064 217.362 28.3064C216.327 28.3064 215.49 28.0936 214.843 27.6653C213.517 26.7869 213.198 25.3602 213.064 24.4246H225.981C225.981 24.4246 226.041 23.7508 225.981 22.7442ZM213.1 21.503C213.182 21.0228 213.747 17.8775 217.167 17.8775C220.42 17.8775 220.895 20.5154 221.04 21.503H213.1Z" fill="white"/>
<path d="M125.29 26.3829C124.159 27.174 122.776 27.5696 121.14 27.5696C120.064 27.5696 119.106 27.3922 118.266 27.0403C117.426 26.6884 116.72 26.1729 116.152 25.4991C115.581 24.8253 115.15 24.0342 114.859 23.123C114.569 22.2147 114.423 21.2135 114.423 20.1223C114.423 19.0093 114.569 18 114.859 17.0889C115.15 16.1805 115.57 15.3949 116.119 14.7292C116.668 14.0664 117.352 13.559 118.17 13.2043C118.988 12.8497 119.924 12.6751 120.98 12.6751C122.034 12.6751 122.981 12.8524 123.821 13.2043C124.661 13.5562 125.356 14.0664 125.905 14.7292C125.96 14.7947 126.001 14.8684 126.053 14.9366L129.769 11.2402C128.91 10.2909 127.864 9.51619 126.629 8.92151C124.993 8.13041 123.11 7.73486 120.98 7.73486C118.936 7.73486 117.165 8.08404 115.669 8.77693C114.173 9.47255 112.93 10.3973 111.939 11.5539C110.948 12.7106 110.218 13.9982 109.743 15.4194C109.268 16.8434 109.032 18.281 109.032 19.735V20.4415C109.032 21.7673 109.263 23.1367 109.727 24.5497C110.188 25.9628 110.91 27.2668 111.89 28.4643C112.869 29.6619 114.124 30.6357 115.65 31.3859C117.179 32.1334 119.007 32.5098 121.14 32.5098C123.399 32.5098 125.353 32.0815 127 31.2277C128.114 30.6494 129.056 29.9292 129.854 29.0917L126.237 25.4963C125.962 25.8182 125.66 26.1238 125.29 26.3829Z" fill="white"/>
<defs>
<linearGradient id="paint0_linear_85_226" x1="3.55542" y1="7.75627" x2="49.776" y2="45.2354" gradientUnits="userSpaceOnUse">
<stop stop-color="#EE2737"/>
<stop offset="0.1272" stop-color="#EF2B34"/>
<stop offset="0.2586" stop-color="#F23829"/>
<stop offset="0.3921" stop-color="#F84C18"/>
<stop offset="0.5261" stop-color="#FF6900"/>
<stop offset="0.9995" stop-color="#FFA400"/>
</linearGradient>
<linearGradient id="paint1_linear_85_226" x1="4.31934" y1="6.81155" x2="50.5399" y2="44.2907" gradientUnits="userSpaceOnUse">
<stop stop-color="#EE2737"/>
<stop offset="0.1272" stop-color="#EF2B34"/>
<stop offset="0.2586" stop-color="#F23829"/>
<stop offset="0.3921" stop-color="#F84C18"/>
<stop offset="0.5261" stop-color="#FF6900"/>
<stop offset="0.9995" stop-color="#FFA400"/>
</linearGradient>
<linearGradient id="paint2_linear_85_226" x1="10.4047" y1="-0.688076" x2="56.6253" y2="36.791" gradientUnits="userSpaceOnUse">
<stop stop-color="#EE2737"/>
<stop offset="0.1272" stop-color="#EF2B34"/>
<stop offset="0.2586" stop-color="#F23829"/>
<stop offset="0.3921" stop-color="#F84C18"/>
<stop offset="0.5261" stop-color="#FF6900"/>
<stop offset="0.9995" stop-color="#FFA400"/>
</linearGradient>
<linearGradient id="paint3_linear_85_226" x1="0.191258" y1="11.9056" x2="46.4119" y2="49.3847" gradientUnits="userSpaceOnUse">
<stop stop-color="#EE2737"/>
<stop offset="0.1272" stop-color="#EF2B34"/>
<stop offset="0.2586" stop-color="#F23829"/>
<stop offset="0.3921" stop-color="#F84C18"/>
<stop offset="0.5261" stop-color="#FF6900"/>
<stop offset="0.9995" stop-color="#FFA400"/>
</linearGradient>
</defs>
</svg>
