<svg width="680" height="133" viewBox="0 0 680 133" fill="none" xmlns="http://www.w3.org/2000/svg">
<path d="M37.2356 47.8538L37.187 26.1612L26.5303 44.0314H22.7581L12.157 26.626V47.8538H4.29297V11.7041H11.2261L24.7727 34.1667L38.1179 11.7041H44.9954L45.0996 47.8538H37.2356Z" fill="#002A3A"/>
<path d="M80.2101 36.2346H59.1607C59.9388 39.6963 62.8843 41.8121 67.122 41.8121C70.0675 41.8121 72.1933 40.9311 74.1037 39.1274L78.3969 43.7753C75.8127 46.7167 71.9293 48.2706 66.9136 48.2706C57.292 48.2706 51.0327 42.2283 51.0327 33.9661C51.0327 25.6484 57.3962 19.6616 65.8785 19.6616C74.0481 19.6616 80.356 25.1351 80.356 34.0702C80.3629 34.6876 80.2587 35.5617 80.2101 36.2346ZM59.0565 31.5381H72.7629C72.1933 28.0279 69.5534 25.7525 65.934 25.7525C62.266 25.7525 59.6262 27.9724 59.0565 31.5381Z" fill="#002A3A"/>
<path d="M114.19 31.947V47.854H106.125V33.1888C106.125 28.6935 104.055 26.6331 100.491 26.6331C96.6145 26.6331 93.8218 29.0056 93.8218 34.1184V47.854H85.7563V20.0705H93.4606V23.3241C95.635 20.9516 98.8931 19.6543 102.665 19.6543C109.223 19.6543 114.19 23.4767 114.19 31.947Z" fill="#002A3A"/>
<path d="M139.418 46.5157C137.765 47.7019 135.333 48.2708 132.846 48.2708C126.281 48.2708 122.453 44.9132 122.453 38.302V26.8903H118.16V20.6954H122.453V13.9316H130.519V20.6954H137.452V26.8903H130.519V38.198C130.519 40.5705 131.811 41.8677 133.985 41.8677C135.173 41.8677 136.361 41.507 137.244 40.8341L139.418 46.5157Z" fill="#002A3A"/>
<path d="M170.194 36.2346H149.144C149.923 39.6963 152.868 41.8121 157.106 41.8121C160.051 41.8121 162.177 40.9311 164.087 39.1274L168.381 43.7753C165.796 46.7167 161.913 48.2706 156.897 48.2706C147.276 48.2706 141.023 42.2283 141.023 33.9661C141.023 25.6484 147.387 19.6616 155.869 19.6616C164.039 19.6616 170.347 25.1351 170.347 34.0702C170.347 34.6876 170.243 35.5617 170.194 36.2346ZM149.04 31.5381H162.747C162.177 28.0279 159.537 25.7525 155.918 25.7525C152.243 25.7525 149.603 27.9724 149.04 31.5381Z" fill="#002A3A"/>
<path d="M173.035 45.2734L175.724 39.4878C178.204 41.0902 181.983 42.1724 185.394 42.1724C189.117 42.1724 190.514 41.1943 190.514 39.6404C190.514 35.0965 173.702 39.7444 173.702 28.638C173.702 23.3726 178.461 19.6543 186.582 19.6543C190.41 19.6543 194.647 20.5353 197.287 22.0823L194.599 27.8124C191.855 26.2654 189.117 25.7452 186.582 25.7452C182.962 25.7452 181.413 26.8829 181.413 28.3258C181.413 33.0778 198.225 28.4784 198.225 39.4323C198.225 44.5935 193.418 48.2633 185.088 48.2633C180.378 48.2702 175.619 46.9799 173.035 45.2734Z" fill="#002A3A"/>
<path d="M217.769 17.9058V10.8091H223.847V17.8989H232.142V23.6845H223.847V37.8642C223.847 41.2079 225.042 42.3456 227.883 42.3456H232.031V47.8468H226.633C220.443 47.8468 217.769 45.3494 217.769 37.5242V23.6915H213.677V17.9058H217.769Z" fill="white" stroke="white" stroke-width="0.6947" stroke-miterlimit="10"/>
<path d="M258.39 17.9058V23.6914H247.824C245.156 23.6914 243.961 24.9401 243.961 27.5485V47.8537H237.938V26.6397C237.938 20.6251 240.154 17.9058 246.059 17.9058H258.39Z" fill="white" stroke="white" stroke-width="0.6947" stroke-miterlimit="10"/>
<path d="M283.492 17.9058C290.987 17.9058 293.947 22.1028 293.947 27.7774V41.846C293.947 46.154 292.808 47.8606 287.757 47.8606H273.724C266.624 47.8606 263.672 44.3989 263.672 38.7243C263.672 33.2786 266.395 30.1014 273.78 30.1014H288.042V27.8329C288.042 25.5089 286.736 23.6914 283.443 23.6914H265.492V17.9058H283.492ZM288.035 40.4794V34.8603H273.891C270.709 34.8603 269.577 36.1645 269.577 38.3774C269.577 40.5904 270.772 42.0056 273.78 42.0056H286.389C287.583 42.0125 288.035 41.5547 288.035 40.4794Z" fill="white" stroke="white" stroke-width="0.6947" stroke-miterlimit="10"/>
<path d="M319.054 17.9073C329.225 17.9073 334.164 22.7287 334.164 31.0117V47.8622H328.085V31.0117C328.085 26.3013 325.362 23.693 319.054 23.693H309.224C308.71 23.693 308.488 23.9774 308.488 24.5462V47.8622H302.465V22.5553C302.465 19.0381 303.66 17.9004 306.668 17.9004H319.054V17.9073Z" fill="white" stroke="white" stroke-width="0.6947" stroke-miterlimit="10"/>
<path d="M367.622 17.9058V23.6914H351.033C348.247 23.6914 347.115 24.8291 347.115 27.0976C347.115 29.1995 348.025 30.3303 351.373 30.3303H358.417C366.712 30.3303 368.81 34.1319 368.81 38.7798C368.81 44.1145 366.024 47.8537 358.98 47.8537H341.543V42.0125H358.98C361.766 42.0125 362.898 41.0483 362.898 38.7243C362.898 36.3448 361.648 35.3736 358.64 35.3736H351.54C343.245 35.3736 341.203 31.2321 341.203 26.6397C341.203 21.2495 343.988 17.9058 350.977 17.9058H367.622Z" fill="white" stroke="white" stroke-width="0.6947" stroke-miterlimit="10"/>
<path d="M376.992 17.9068V15.243C376.992 7.41086 379.659 4.92041 385.856 4.92041H391.254V10.4216H387.106C384.265 10.4216 383.07 11.5593 383.07 14.903V17.9068H391.365V23.6925H383.07V47.8547H376.992V23.6925H372.9V17.9068H376.992Z" fill="white" stroke="white" stroke-width="0.6947" stroke-miterlimit="10"/>
<path d="M415.112 17.9058C423.066 17.9058 428.124 22.7826 428.124 32.8832C428.124 42.9837 423.066 47.8606 415.112 47.8606H408.804C400.794 47.8606 395.792 42.9837 395.792 32.8832C395.792 22.7826 400.794 17.9058 408.804 17.9058H415.112ZM409.374 23.6914C404.15 23.6914 401.878 26.4108 401.878 32.8832C401.878 39.3556 404.15 42.0195 409.374 42.0195H414.542C419.711 42.0195 422.038 39.3556 422.038 32.8832C422.038 26.4108 419.711 23.6914 414.542 23.6914H409.374Z" fill="white" stroke="white" stroke-width="0.6947" stroke-miterlimit="10"/>
<path d="M455.726 17.9058V23.6914H445.159C442.492 23.6914 441.297 24.9401 441.297 27.5485V47.8537H435.274V26.6397C435.274 20.6251 437.49 17.9058 443.395 17.9058H455.726Z" fill="white" stroke="white" stroke-width="0.6947" stroke-miterlimit="10"/>
<path d="M496.684 17.9073C506.854 17.9073 511.849 22.7287 511.849 31.0117V47.8622H505.771V31.0117C505.771 26.3013 503.047 23.693 496.74 23.693H489.695V47.8552H483.617V23.693H468.389C467.875 23.693 467.652 23.9774 467.652 24.5462V47.8622H461.629V22.5553C461.629 19.0381 462.824 17.9004 465.832 17.9004H496.684V17.9073Z" fill="white" stroke="white" stroke-width="0.6947" stroke-miterlimit="10"/>
<path d="M539.458 17.9058C546.953 17.9058 549.913 22.1028 549.913 27.7774V41.846C549.913 46.154 548.773 47.8606 543.723 47.8606H529.69C522.59 47.8606 519.638 44.3989 519.638 38.7243C519.638 33.2786 522.361 30.1014 529.746 30.1014H544.008V27.8329C544.008 25.5089 542.702 23.6914 539.409 23.6914H521.458V17.9058H539.458ZM544.001 40.4794V34.8603H529.857C526.675 34.8603 525.543 36.1645 525.543 38.3774C525.543 40.5904 526.738 42.0056 529.746 42.0056H542.354C543.549 42.0125 544.001 41.5547 544.001 40.4794Z" fill="white" stroke="white" stroke-width="0.6947" stroke-miterlimit="10"/>
<path d="M589.334 4.91309V35.0344C589.334 43.6573 585.472 47.8544 578.316 47.8544H570.022C562.012 47.8544 557.01 42.9775 557.01 32.8769C557.01 22.7764 562.012 17.8995 570.022 17.8995H583.256V4.91309H589.334ZM583.256 34.75V23.6921H570.584C565.416 23.6921 563.088 26.4115 563.088 32.8839C563.088 39.3563 565.416 42.0202 570.584 42.0202H576.552C581.38 42.0132 583.256 39.8558 583.256 34.75Z" fill="white" stroke="white" stroke-width="0.6947" stroke-miterlimit="10"/>
<path d="M617.11 17.9058C624.606 17.9058 627.566 22.1028 627.566 27.7774V41.846C627.566 46.154 626.426 47.8606 621.376 47.8606H607.343C600.243 47.8606 597.291 44.3989 597.291 38.7243C597.291 33.2786 600.014 30.1014 607.398 30.1014H621.661V27.8329C621.661 25.5089 620.355 23.6914 617.062 23.6914H599.111V17.9058H617.11ZM621.654 40.4794V34.8603H607.51C604.328 34.8603 603.195 36.1645 603.195 38.3774C603.195 40.5904 604.39 42.0056 607.398 42.0056H620.007C621.202 42.0125 621.654 41.5547 621.654 40.4794Z" fill="white" stroke="white" stroke-width="0.6947" stroke-miterlimit="10"/>
<path d="M661.075 17.9058V23.6914H644.485C641.7 23.6914 640.567 24.8291 640.567 27.0976C640.567 29.1995 641.477 30.3303 644.826 30.3303H651.87C660.165 30.3303 662.263 34.1319 662.263 38.7798C662.263 44.1145 659.477 47.8537 652.433 47.8537H634.996V42.0125H652.433C655.218 42.0125 656.351 41.0483 656.351 38.7243C656.351 36.3448 655.1 35.3736 652.092 35.3736H644.992C636.698 35.3736 634.655 31.2321 634.655 26.6397C634.655 21.2495 637.441 17.9058 644.43 17.9058H661.075Z" fill="white" stroke="white" stroke-width="0.6947" stroke-miterlimit="10"/>
<path d="M676.02 40.1401V49.3319C676.02 54.7221 673.638 57.386 668.636 57.386H666.649V52.4467H667.33C668.865 52.4467 669.546 51.7114 669.546 50.0048V40.1401H676.02Z" fill="white" stroke="white" stroke-width="0.6947" stroke-miterlimit="10"/>
<path d="M68.4248 79.3564H76.4903V117.678H68.4248V79.3564Z" fill="#002A3A"/>
<path d="M90.3006 78.8911H98.9913L89.6267 86.3278H83.3188L90.3006 78.8911ZM83.9858 89.8935H92.0512V117.677H83.9858V89.8935Z" fill="#002A3A"/>
<path d="M127.897 79.3564V117.678H120.186V114.473C118.171 116.901 115.219 118.087 111.495 118.087C103.631 118.087 97.5806 112.509 97.5806 103.782C97.5806 95.0553 103.631 89.4778 111.495 89.4778C114.906 89.4778 117.803 90.56 119.825 92.8354V79.3564H127.897ZM119.985 103.782C119.985 98.9818 116.879 96.089 112.899 96.089C108.862 96.089 105.764 98.9818 105.764 103.782C105.764 108.583 108.869 111.476 112.899 111.476C116.879 111.476 119.985 108.59 119.985 103.782Z" fill="#002A3A"/>
<path d="M162.436 106.057H141.387C142.165 109.519 145.11 111.635 149.348 111.635C152.294 111.635 154.419 110.754 156.33 108.95L160.623 113.598C158.039 116.539 154.155 118.093 149.14 118.093C139.518 118.093 133.259 112.051 133.259 103.789C133.259 95.4712 139.622 89.4844 148.105 89.4844C156.274 89.4844 162.582 94.9578 162.582 103.893C162.589 104.503 162.492 105.384 162.436 106.057ZM141.283 101.354H154.989C154.419 97.8437 151.779 95.5683 148.16 95.5683C144.492 95.5683 141.852 97.7951 141.283 101.354Z" fill="#002A3A"/>
<path d="M185.245 89.4771V96.9137C184.571 96.8652 184.057 96.8097 183.432 96.8097C178.986 96.8097 176.033 99.2377 176.033 104.559V117.677H167.968V89.8933H175.672V93.5631C177.645 90.8714 180.952 89.4771 185.245 89.4771Z" fill="#002A3A"/>
<path d="M216.897 106.057H195.847C196.625 109.519 199.571 111.635 203.808 111.635C206.754 111.635 208.88 110.754 210.79 108.95L215.083 113.598C212.499 116.539 208.616 118.093 203.6 118.093C193.978 118.093 187.719 112.051 187.719 103.789C187.719 95.4712 194.083 89.4844 202.565 89.4844C210.735 89.4844 217.043 94.9578 217.043 103.893C217.049 104.503 216.945 105.384 216.897 106.057ZM195.743 101.354H209.449C208.88 97.8437 206.24 95.5683 202.621 95.5683C198.953 95.5683 196.313 97.7951 195.743 101.354Z" fill="#002A3A"/>
<path d="M219.735 115.096L222.423 109.311C224.903 110.913 228.683 111.995 232.094 111.995C235.817 111.995 237.214 111.017 237.214 109.463C237.214 104.919 220.402 109.567 220.402 98.4607C220.402 93.1954 225.16 89.4771 233.282 89.4771C237.109 89.4771 241.347 90.3581 243.987 91.9051L241.298 97.6352C238.554 96.0882 235.817 95.5679 233.282 95.5679C229.662 95.5679 228.113 96.7056 228.113 98.1486C228.113 102.901 244.925 98.3012 244.925 109.255C244.925 114.416 240.117 118.086 231.788 118.086C227.078 118.086 222.319 116.796 219.735 115.096Z" fill="#002A3A"/>
<path d="M269.467 76.4346V83.4134H263.389V76.4346H269.467ZM269.412 87.7214V117.676H263.389V87.7214H269.412Z" fill="white" stroke="white" stroke-width="0.6947" stroke-miterlimit="10"/>
<path d="M294.635 87.7207C304.806 87.7207 309.745 92.5421 309.745 100.825V117.676H303.666V100.825C303.666 96.1147 300.943 93.5063 294.635 93.5063H284.805C284.291 93.5063 284.069 93.7908 284.069 94.3596V117.676H278.046V92.3756C278.046 88.8584 279.241 87.7207 282.249 87.7207H294.635Z" fill="white" stroke="white" stroke-width="0.6947" stroke-miterlimit="10"/>
<path d="M336.103 87.7207C344.058 87.7207 349.115 92.5976 349.115 102.698C349.115 112.799 344.058 117.676 336.103 117.676H329.795C321.786 117.676 316.784 112.799 316.784 102.698C316.784 92.5976 321.786 87.7207 329.795 87.7207H336.103ZM330.365 93.5063C325.141 93.5063 322.869 96.2257 322.869 102.698C322.869 109.171 325.141 111.834 330.365 111.834H335.534C340.702 111.834 343.029 109.171 343.029 102.698C343.029 96.2257 340.702 93.5063 335.534 93.5063H330.365Z" fill="white" stroke="white" stroke-width="0.6947" stroke-miterlimit="10"/>
<path d="M357.797 87.7207L367.794 111.772C368.023 112.396 368.531 112.681 369.274 112.681C370.066 112.681 370.58 112.396 370.865 111.772L381.257 87.7207H387.732L376.144 114.436C374.894 117.273 372.678 118.348 369.274 118.348C365.807 118.348 363.591 117.211 362.459 114.436L351.441 87.7207H357.797Z" fill="white" stroke="white" stroke-width="0.6947" stroke-miterlimit="10"/>
<path d="M412.332 87.7207C419.828 87.7207 422.788 91.9177 422.788 97.5923V111.661C422.788 115.969 421.648 117.676 416.598 117.676H402.565C395.465 117.676 392.513 114.214 392.513 108.539C392.513 103.094 395.236 99.9163 402.621 99.9163H416.883V97.6478C416.883 95.3239 415.577 93.5063 412.284 93.5063H394.333V87.7207H412.332ZM416.876 110.301V104.682H402.732C399.55 104.682 398.418 105.986 398.418 108.199C398.418 110.412 399.613 111.827 402.621 111.827H415.229C416.424 111.834 416.876 111.377 416.876 110.301Z" fill="white" stroke="white" stroke-width="0.6947" stroke-miterlimit="10"/>
<path d="M462.206 74.735V104.856C462.206 113.479 458.343 117.676 451.188 117.676H442.893C434.883 117.676 429.881 112.799 429.881 102.699C429.881 92.5982 434.883 87.7214 442.893 87.7214H456.127V74.728H462.206V74.735ZM456.127 104.572V93.507H443.456C438.287 93.507 435.96 96.2264 435.96 102.699C435.96 109.171 438.287 111.835 443.456 111.835H449.423C454.258 111.835 456.127 109.678 456.127 104.572Z" fill="white" stroke="white" stroke-width="0.6947" stroke-miterlimit="10"/>
<path d="M488.678 87.7207C496.633 87.7207 501.69 92.5976 501.69 102.698C501.69 112.799 496.633 117.676 488.678 117.676H482.371C474.361 117.676 469.359 112.799 469.359 102.698C469.359 92.5976 474.361 87.7207 482.371 87.7207H488.678ZM482.94 93.5063C477.716 93.5063 475.444 96.2257 475.444 102.698C475.444 109.171 477.716 111.834 482.94 111.834H488.109C493.277 111.834 495.605 109.171 495.605 102.698C495.605 96.2257 493.277 93.5063 488.109 93.5063H482.94Z" fill="white" stroke="white" stroke-width="0.6947" stroke-miterlimit="10"/>
<path d="M529.292 87.7207V93.5063H518.726C516.058 93.5063 514.863 94.755 514.863 97.3634V117.669H508.84V96.4546C508.84 90.4401 511.056 87.7207 516.961 87.7207H529.292Z" fill="white" stroke="white" stroke-width="0.6947" stroke-miterlimit="10"/>
<path d="M554.744 87.7207C561.844 87.7207 564.859 91.1269 564.859 96.9125C564.859 102.414 562.073 105.535 554.689 105.535H540.427V107.693C540.427 110.072 541.733 111.834 545.026 111.834H563.373V117.676H545.026C537.53 117.676 534.57 113.479 534.57 107.804V97.5923C534.57 91.9177 537.523 87.7207 545.026 87.7207H554.744ZM540.427 100.825H554.515C557.752 100.825 558.947 99.4654 558.947 97.2524C558.947 94.984 557.641 93.5063 554.689 93.5063H545.032C541.74 93.5063 540.434 95.3239 540.434 97.6478V100.825H540.427Z" fill="white" stroke="white" stroke-width="0.6947" stroke-miterlimit="10"/>
<path d="M597.234 87.7207V93.5063H580.644C577.859 93.5063 576.726 94.644 576.726 96.9125C576.726 99.0145 577.636 100.145 580.985 100.145H588.029C596.324 100.145 598.422 103.947 598.422 108.595C598.422 113.929 595.636 117.669 588.592 117.669H571.155V111.827H588.592C591.378 111.827 592.51 110.863 592.51 108.539C592.51 106.16 591.259 105.189 588.251 105.189H581.152C572.857 105.189 570.814 101.047 570.814 96.4546C570.814 91.0644 573.6 87.7207 580.589 87.7207H597.234Z" fill="white" stroke="white" stroke-width="0.6947" stroke-miterlimit="10"/>
<path d="M611.321 109.96V117.675H604.846V109.96H611.321Z" fill="white" stroke="white" stroke-width="0.6947" stroke-miterlimit="10"/>
</svg>
