<svg width="72" height="72" viewBox="0 0 72 72" fill="none" xmlns="http://www.w3.org/2000/svg">
<rect width="72" height="72" rx="12" fill="url(#paint0_linear_85_269)"/>
<path d="M37.3732 27.2798C37.366 27.8291 36.9225 28.2727 36.3732 28.2798C35.8239 28.2727 35.3804 27.8291 35.3732 27.2798V23.6665C35.3732 23.1142 35.8209 22.6665 36.3732 22.6665C36.9255 22.6665 37.3732 23.1142 37.3732 23.6665V27.2798Z" fill="#FDFDFD"/>
<path fill-rule="evenodd" clip-rule="evenodd" d="M36.4665 29.5065H36.3732C33.8264 29.4603 31.4759 30.8694 30.3164 33.1373C29.157 35.4053 29.3911 38.1357 30.9198 40.1732C32.2516 41.9552 32.9928 44.109 33.0398 46.3332C33.2526 48.0121 34.6808 49.2707 36.3732 49.2707C38.0655 49.2707 39.4937 48.0121 39.7065 46.3332C39.6358 44.1985 40.2994 42.1043 41.5865 40.3998C42.495 39.2611 43.0054 37.8561 43.0398 36.3998C43.0856 32.6977 40.1666 29.6366 36.4665 29.5065ZM36.3732 47.6665C35.6368 47.6665 35.0398 47.0695 35.0398 46.3332V45.9865H37.7865V46.3598C37.7799 46.7231 37.6253 47.068 37.3585 47.3146C37.0917 47.5613 36.7359 47.6884 36.3732 47.6665Z" fill="#FDFDFD"/>
<path d="M36.3732 29.5065L36.4398 31.5065C38.2379 31.5335 39.8644 32.5797 40.6344 34.2048C41.4045 35.8298 41.1843 37.7512 40.0665 39.1598C38.9871 40.5563 38.264 42.1946 37.9598 43.9332H34.7598C34.3588 42.1404 33.5966 40.4482 32.5198 38.9598C31.4967 37.5195 31.3637 35.6283 32.175 34.0588C32.9864 32.4894 34.6064 31.5045 36.3732 31.5065V29.5065Z" fill="#FDFDFD"/>
<path d="M46.1198 26.4932C45.7294 26.1032 45.0969 26.1032 44.7065 26.4932L42.2132 28.9732C41.8288 29.3711 41.8288 30.002 42.2132 30.3998C42.6163 30.7709 43.2367 30.7709 43.6398 30.3998L46.1198 27.9065C46.5098 27.5161 46.5098 26.8836 46.1198 26.4932Z" fill="#FDFDFD"/>
<path d="M45.3332 34.7065H48.8398C49.3921 34.7065 49.8398 35.1542 49.8398 35.7065C49.8398 36.2588 49.3921 36.7065 48.8398 36.7065H45.3332C44.7809 36.7065 44.3332 36.2588 44.3332 35.7065C44.3332 35.1542 44.7809 34.7065 45.3332 34.7065Z" fill="#FDFDFD"/>
<path d="M27.1732 34.7065H23.6665C23.1142 34.7065 22.6665 35.1542 22.6665 35.7065C22.6665 36.2588 23.1142 36.7065 23.6665 36.7065H27.1732C27.7255 36.7065 28.1732 36.2588 28.1732 35.7065C28.1732 35.1542 27.7255 34.7065 27.1732 34.7065Z" fill="#FDFDFD"/>
<path d="M30.6857 29.6865C30.6857 29.9548 30.5779 30.2118 30.3865 30.3998C30.1962 30.5813 29.9428 30.6817 29.6798 30.6798C29.4171 30.6804 29.1642 30.5801 28.9732 30.3998L26.4932 27.9065C26.2256 27.6572 26.1155 27.2818 26.206 26.9275C26.2965 26.5731 26.5731 26.2965 26.9275 26.206C27.2818 26.1155 27.6572 26.2256 27.9065 26.4932L30.3865 28.9732C30.5779 29.1612 30.6857 29.4182 30.6857 29.6865Z" fill="#FDFDFD"/>
<defs>
<linearGradient id="paint0_linear_85_269" x1="50.5" y1="-5.5" x2="-40.5" y2="162.5" gradientUnits="userSpaceOnUse">
<stop stop-color="#ED2737"/>
<stop offset="1" stop-color="#FFA300" stop-opacity="0.8"/>
</linearGradient>
</defs>
</svg>
