<svg width="72" height="72" viewBox="0 0 72 72" fill="none" xmlns="http://www.w3.org/2000/svg">
<rect width="72" height="72" rx="12" fill="url(#paint0_linear_85_257)"/>
<path fill-rule="evenodd" clip-rule="evenodd" d="M41.3333 31.6799C41.2897 33.8577 39.5116 35.6003 37.3333 35.5999C35.181 35.5644 33.4427 33.832 33.4 31.6799V30.1732C33.3997 29.2857 33.7576 28.4357 34.3927 27.8157C35.0277 27.1958 35.8861 26.8583 36.7733 26.8799H38.0266C38.9024 26.8763 39.7435 27.2217 40.364 27.8397C40.9845 28.4578 41.3333 29.2975 41.3333 30.1732V31.6799ZM36.7333 28.8399C35.9969 28.8399 35.4 29.4368 35.4 30.1732L35.4533 31.6799C35.4533 32.7476 36.3189 33.6132 37.3866 33.6132C38.4544 33.6132 39.32 32.7476 39.32 31.6799V30.1732C39.32 29.4368 38.723 28.8399 37.9866 28.8399H36.7333Z" fill="#FDFDFD"/>
<path fill-rule="evenodd" clip-rule="evenodd" d="M51.3066 40.3999L51.4533 42.4799C51.6074 43.1309 51.4569 43.8166 51.0444 44.3432C50.6319 44.8699 50.0022 45.1802 49.3333 45.1865H43.3466C42.8244 45.7432 42.0966 46.0613 41.3333 46.0665H33.3333C32.5314 46.0773 31.7638 45.7421 31.2266 45.1465C31.1026 45.1603 30.9774 45.1603 30.8533 45.1465H24.7333C24.0826 45.122 23.4762 44.8105 23.0773 44.2958C22.6784 43.7811 22.528 43.1161 22.6666 42.4799L22.8666 40.3999C23.0612 39.4074 23.9221 38.6853 24.9333 38.6665H30.6666C30.9059 38.6533 31.1456 38.6849 31.3733 38.7599C31.8848 38.1209 32.6615 37.7522 33.48 37.7599H41.1866C41.9572 37.757 42.6914 38.0876 43.2 38.6665C43.2928 38.6534 43.3871 38.6534 43.48 38.6665H49.24C50.2512 38.6853 51.1121 39.4074 51.3066 40.3999ZM43.4 43.1465H49.44C49.4808 43.068 49.4856 42.9756 49.4533 42.8932V42.6265L49.32 40.7332L49.24 40.6265H43.2C42.6363 40.6286 42.0983 40.3911 41.72 39.9732C41.5877 39.815 41.3929 39.7225 41.1866 39.7199H33.48C33.2566 39.7227 33.0462 39.8255 32.9066 39.9999C32.526 40.4517 31.9641 40.7107 31.3733 40.7065C31.1314 40.7077 30.8915 40.6624 30.6666 40.5732H25C24.92 40.5732 24.92 40.5999 24.92 40.6799L24.7866 42.5732V42.8399C24.7501 42.9204 24.7501 43.0127 24.7866 43.0932H30.9066C31.0486 43.0802 31.1914 43.0802 31.3333 43.0932C31.8752 43.1033 32.3879 43.3403 32.7466 43.7465C32.8938 43.9187 33.1069 44.0205 33.3333 44.0265H41.3866C41.6134 44.0222 41.8273 43.9201 41.9733 43.7465C42.3482 43.3619 42.8629 43.1455 43.4 43.1465Z" fill="#FDFDFD"/>
<path fill-rule="evenodd" clip-rule="evenodd" d="M49.2933 33.6799C49.2933 35.2999 47.98 36.6132 46.36 36.6132C45.5797 36.6168 44.8302 36.3093 44.2772 35.7588C43.7242 35.2083 43.4133 34.4602 43.4133 33.6799V32.5599C43.4133 31.9057 43.6732 31.2783 44.1358 30.8157C44.5984 30.3531 45.2258 30.0932 45.88 30.0932H46.8266C48.1889 30.0932 49.2933 31.1976 49.2933 32.5599V33.6799ZM45.55 32.2832C45.4625 32.3707 45.4133 32.4894 45.4133 32.6132V33.7332C45.4701 34.2093 45.8739 34.5677 46.3533 34.5677C46.8328 34.5677 47.2365 34.2093 47.2933 33.7332V32.6132C47.2933 32.3555 47.0844 32.1465 46.8266 32.1465H45.88C45.7562 32.1465 45.6375 32.1957 45.55 32.2832Z" fill="#FDFDFD"/>
<path fill-rule="evenodd" clip-rule="evenodd" d="M29.8961 35.7588C29.3431 36.3093 28.5936 36.6168 27.8133 36.6132C27.0353 36.6132 26.2892 36.3042 25.7391 35.7541C25.189 35.204 24.88 34.4578 24.88 33.6799V32.5599C24.88 31.1976 25.9843 30.0932 27.3466 30.0932H28.2933C29.6556 30.0932 30.76 31.1976 30.76 32.5599V33.6799C30.76 34.4602 30.4491 35.2083 29.8961 35.7588ZM27.3466 32.1465C27.0889 32.1465 26.88 32.3555 26.88 32.6132V33.7332C26.9368 34.2093 27.3405 34.5677 27.82 34.5677C28.2994 34.5677 28.7032 34.2093 28.76 33.7332V32.6132C28.76 32.3555 28.551 32.1465 28.2933 32.1465H27.3466Z" fill="#FDFDFD"/>
<defs>
<linearGradient id="paint0_linear_85_257" x1="50.5" y1="-5.5" x2="-40.5" y2="162.5" gradientUnits="userSpaceOnUse">
<stop stop-color="#ED2737"/>
<stop offset="1" stop-color="#FFA300" stop-opacity="0.8"/>
</linearGradient>
</defs>
</svg>
