<svg width="40" height="40" viewBox="0 0 40 40" fill="none" xmlns="http://www.w3.org/2000/svg">
<rect x="1" y="1" width="38" height="38" rx="19" stroke="#D1E1ED" stroke-width="2"/>
<path d="M20.0047 13.4409C22.1434 13.4409 22.3967 13.4503 23.2378 13.4878C24.0195 13.5222 24.4417 13.6534 24.7231 13.7628C25.0952 13.9066 25.3641 14.0817 25.6424 14.3598C25.9238 14.6411 26.0958 14.9068 26.2396 15.2788C26.349 15.5601 26.4804 15.9852 26.5148 16.7634C26.5523 17.6073 26.5617 17.8605 26.5617 19.9953C26.5617 22.1332 26.5523 22.3864 26.5148 23.2272C26.4804 24.0086 26.349 24.4306 26.2396 24.7119C26.0958 25.0838 25.9207 25.3526 25.6424 25.6308C25.361 25.9121 25.0952 26.084 24.7231 26.2278C24.4417 26.3372 24.0164 26.4685 23.2378 26.5028C22.3936 26.5403 22.1403 26.5497 20.0047 26.5497C17.8659 26.5497 17.6127 26.5403 16.7715 26.5028C15.9898 26.4685 15.5677 26.3372 15.2863 26.2278C14.9142 26.084 14.6453 25.909 14.367 25.6308C14.0856 25.3495 13.9136 25.0838 13.7698 24.7119C13.6603 24.4306 13.529 24.0055 13.4946 23.2272C13.4571 22.3833 13.4477 22.1301 13.4477 19.9953C13.4477 17.8574 13.4571 17.6042 13.4946 16.7634C13.529 15.982 13.6603 15.5601 13.7698 15.2788C13.9136 14.9068 14.0887 14.638 14.367 14.3598C14.6484 14.0785 14.9142 13.9066 15.2863 13.7628C15.5677 13.6534 15.993 13.5222 16.7715 13.4878C17.6127 13.4503 17.8659 13.4409 20.0047 13.4409ZM20.0047 12C17.8315 12 17.5595 12.0094 16.7059 12.0469C15.8554 12.0844 15.2707 12.2219 14.7641 12.4188C14.2357 12.6251 13.7885 12.8971 13.3445 13.344C12.8974 13.7878 12.6254 14.2348 12.419 14.7599C12.222 15.2694 12.0844 15.8508 12.0469 16.7009C12.0094 17.5573 12 17.8293 12 20.0016C12 22.1739 12.0094 22.4458 12.0469 23.2991C12.0844 24.1492 12.222 24.7337 12.419 25.2401C12.6254 25.7683 12.8974 26.2153 13.3445 26.6591C13.7885 27.103 14.2357 27.378 14.761 27.5812C15.2707 27.7781 15.8523 27.9156 16.7028 27.9531C17.5564 27.9906 17.8284 28 20.0016 28C22.1747 28 22.4467 27.9906 23.3004 27.9531C24.1509 27.9156 24.7356 27.7781 25.2421 27.5812C25.7674 27.378 26.2146 27.103 26.6586 26.6591C27.1026 26.2153 27.3778 25.7683 27.581 25.2432C27.778 24.7337 27.9156 24.1524 27.9531 23.3022C27.9906 22.4489 28 22.177 28 20.0047C28 17.8324 27.9906 17.5605 27.9531 16.7072C27.9156 15.857 27.778 15.2725 27.581 14.7662C27.384 14.2348 27.112 13.7878 26.6648 13.344C26.2208 12.9002 25.7737 12.6251 25.2484 12.422C24.7387 12.225 24.1571 12.0875 23.3066 12.05C22.4499 12.0094 22.1778 12 20.0047 12Z" fill="#1D242D"/>
<path d="M20.0047 15.8914C17.7346 15.8914 15.8929 17.7324 15.8929 20.0016C15.8929 22.2708 17.7346 24.1117 20.0047 24.1117C22.2748 24.1117 24.1165 22.2708 24.1165 20.0016C24.1165 17.7324 22.2748 15.8914 20.0047 15.8914ZM20.0047 22.6677C18.532 22.6677 17.3375 21.4737 17.3375 20.0016C17.3375 18.5294 18.532 17.3354 20.0047 17.3354C21.4774 17.3354 22.6719 18.5294 22.6719 20.0016C22.6719 21.4737 21.4774 22.6677 20.0047 22.6677Z" fill="#1D242D"/>
<path d="M25.239 15.7293C25.239 16.2607 24.8075 16.6889 24.279 16.6889C23.7475 16.6889 23.3191 16.2575 23.3191 15.7293C23.3191 15.198 23.7506 14.7698 24.279 14.7698C24.8075 14.7698 25.239 15.2011 25.239 15.7293Z" fill="#1D242D"/>
</svg>
