<svg width="72" height="72" viewBox="0 0 72 72" fill="none" xmlns="http://www.w3.org/2000/svg">
<rect width="72" height="72" rx="12" fill="url(#paint0_linear_85_263)"/>
<path fill-rule="evenodd" clip-rule="evenodd" d="M44.6901 24H36.7968C34.5877 24 32.7968 25.7909 32.7968 28V43.04C32.7968 45.2491 34.5877 47.04 36.7968 47.04H44.6901C46.8993 47.04 48.6901 45.2491 48.6901 43.04V28C48.6901 25.7909 46.8993 24 44.6901 24ZM34.8501 34.6667H35.9435C36.3117 34.6667 36.6101 34.9651 36.6101 35.3333V35.76C36.6101 36.1282 36.3117 36.4267 35.9435 36.4267H34.8501V34.6667ZM44.6901 45.0667C45.7947 45.0667 46.6901 44.1712 46.6901 43.0667V28C46.6901 26.8954 45.7947 26 44.6901 26H36.7968C35.6922 26 34.7968 26.8954 34.7968 28V32.64H35.8901C37.3629 32.64 38.5568 33.8339 38.5568 35.3067V35.7333C38.5568 37.2061 37.3629 38.4 35.8901 38.4H34.7968V43.0667C34.7968 44.1712 35.6922 45.0667 36.7968 45.0667H44.6901Z" fill="#FDFDFD"/>
<path fill-rule="evenodd" clip-rule="evenodd" d="M22.6768 28.56C22.5162 26.2433 24.2547 24.2309 26.5701 24.0533C28.8751 24.2515 30.5925 26.266 30.4235 28.5733V40.9333C30.4386 41.5747 30.2622 42.206 29.9168 42.7467L27.4235 46.6C27.2469 46.9166 26.9127 47.1129 26.5501 47.1129C26.1876 47.1129 25.8534 46.9166 25.6768 46.6L23.1835 42.7467C22.8459 42.2026 22.6702 41.5736 22.6768 40.9333V28.56ZM28.2235 41.6533C28.3574 41.4373 28.4268 41.1875 28.4235 40.9333L28.4501 28.56C28.4635 27.2 27.5968 26.0533 26.5701 26.0533C25.5568 26.0533 24.6901 27.2267 24.6901 28.56V40.9333C24.6788 41.1849 24.7389 41.4345 24.8635 41.6533L26.5435 44.32L28.2235 41.6533Z" fill="#FDFDFD"/>
<path d="M26.5568 26.9067C26.0045 26.9067 25.5568 27.3544 25.5568 27.9067V32.52C25.5568 33.0723 26.0045 33.52 26.5568 33.52C27.1091 33.52 27.5568 33.0723 27.5568 32.52V27.9067C27.5604 27.6404 27.4562 27.3839 27.2679 27.1956C27.0796 27.0072 26.8231 26.903 26.5568 26.9067Z" fill="#FDFDFD"/>
<path d="M44.3968 28.1867H39.9301C39.3778 28.1867 38.9301 28.6344 38.9301 29.1867C38.9301 29.739 39.3778 30.1867 39.9301 30.1867H44.3968C44.9491 30.1867 45.3968 29.739 45.3968 29.1867C45.3968 28.6344 44.9491 28.1867 44.3968 28.1867Z" fill="#FDFDFD"/>
<defs>
<linearGradient id="paint0_linear_85_263" x1="50.5" y1="-5.5" x2="-40.5" y2="162.5" gradientUnits="userSpaceOnUse">
<stop stop-color="#ED2737"/>
<stop offset="1" stop-color="#FFA300" stop-opacity="0.8"/>
</linearGradient>
</defs>
</svg>
