<svg width="99" height="98" viewBox="0 0 99 98" fill="none" xmlns="http://www.w3.org/2000/svg">
<path d="M0.829804 1.51397C0.285577 1.60797 -0.079407 2.12535 0.0145898 2.66958C0.108586 3.2138 0.625969 3.57879 1.1702 3.48479L0.829804 1.51397ZM98.8171 90.0758C99.1355 89.6245 99.0277 89.0006 98.5764 88.6822L91.2222 83.4943C90.7709 83.1759 90.147 83.2837 89.8286 83.7349C89.5103 84.1862 89.618 84.8102 90.0693 85.1285L96.6064 89.7401L91.9949 96.2772C91.6765 96.7285 91.7843 97.3524 92.2356 97.6708C92.6869 97.9891 93.3108 97.8813 93.6291 97.4301L98.8171 90.0758ZM1 2.49938C1.1702 3.48479 1.17015 3.4848 1.1701 3.48481C1.17009 3.48481 1.17005 3.48482 1.17003 3.48482C1.16998 3.48483 1.16995 3.48483 1.16993 3.48484C1.16988 3.48485 1.16987 3.48485 1.16991 3.48484C1.16998 3.48483 1.17023 3.48479 1.17063 3.48472C1.17145 3.48458 1.17294 3.48432 1.1751 3.48396C1.17941 3.48323 1.18638 3.48205 1.19598 3.48046C1.21518 3.47727 1.24486 3.47241 1.28472 3.46607C1.36443 3.45339 1.4848 3.43481 1.64325 3.4119C1.96017 3.3661 2.42928 3.30304 3.02997 3.23542L2.80626 1.24797C2.1833 1.31809 1.69335 1.38388 1.35713 1.43248C1.18901 1.45678 1.05928 1.47679 0.970544 1.4909C0.926172 1.49796 0.892043 1.50354 0.868479 1.50746C0.856697 1.50941 0.847557 1.51095 0.841098 1.51204C0.837868 1.51259 0.835309 1.51303 0.833425 1.51335C0.832483 1.51351 0.83171 1.51364 0.831106 1.51375C0.830804 1.5138 0.830545 1.51384 0.830328 1.51388C0.830219 1.5139 0.830121 1.51392 0.830034 1.51393C0.82999 1.51394 0.829933 1.51395 0.829911 1.51395C0.829856 1.51396 0.829804 1.51397 1 2.49938ZM6.89269 2.92514C8.05755 2.86631 9.36244 2.83045 10.7721 2.83924L10.7845 0.839279C9.33355 0.830232 7.99068 0.867138 6.7918 0.927691L6.89269 2.92514ZM14.6434 2.97637C15.8877 3.05772 17.1781 3.17914 18.4968 3.35137L18.7558 1.36822C17.3908 1.18994 16.0574 1.06455 14.7738 0.98063L14.6434 2.97637ZM22.3051 3.98667C23.5454 4.24098 24.7945 4.54609 26.039 4.91006L26.6004 2.99047C25.299 2.60988 23.9965 2.29185 22.7068 2.02743L22.3051 3.98667ZM29.6701 6.15637C30.8472 6.6251 32.0072 7.15533 33.1387 7.7541L34.0742 5.98638C32.8747 5.35163 31.649 4.79165 30.41 4.29827L29.6701 6.15637ZM36.394 9.73403C37.4217 10.4498 38.4121 11.236 39.3551 12.0992L40.7055 10.6239C39.6941 9.69809 38.634 8.85682 37.5371 8.09287L36.394 9.73403ZM41.9668 14.8473C42.7513 15.7982 43.4868 16.8228 44.1648 17.9267L45.8691 16.88C45.1421 15.6963 44.3525 14.5963 43.5095 13.5745L41.9668 14.8473ZM45.9281 21.2797C46.4272 22.3995 46.8748 23.5875 47.2646 24.8481L49.1753 24.2573C48.7626 22.9225 48.2871 21.6597 47.7548 20.4655L45.9281 21.2797ZM48.1975 28.5625C48.436 29.7708 48.6267 31.0364 48.7655 32.3622L50.7547 32.1539C50.6098 30.7705 50.4103 29.4451 50.1597 28.1753L48.1975 28.5625ZM49.0139 36.2014C49.0472 37.4383 49.0392 38.7213 48.9871 40.0523L50.9855 40.1305C51.0393 38.7574 51.0477 37.4302 51.0132 36.1475L49.0139 36.2014ZM48.7238 43.9029C48.6615 44.5508 48.5894 45.209 48.5074 45.8776L50.4926 46.1211C50.5766 45.4356 50.6506 44.7601 50.7146 44.0944L48.7238 43.9029ZM48.5074 45.8776C48.4234 46.5632 48.3494 47.2387 48.2854 47.9043L50.2762 48.0959C50.3385 47.4479 50.4106 46.7897 50.4926 46.1211L48.5074 45.8776ZM48.0145 51.8682C47.9607 53.2413 47.9523 54.5685 47.9868 55.8513L49.9861 55.7974C49.9528 54.5605 49.9608 53.2774 50.0129 51.9465L48.0145 51.8682ZM48.2453 59.8448C48.3902 61.2282 48.5897 62.5537 48.8403 63.8234L50.8025 63.4362C50.564 62.228 50.3733 60.9623 50.2345 59.6366L48.2453 59.8448ZM49.8247 67.7414C50.2374 69.0763 50.7129 70.339 51.2452 71.5332L53.0719 70.719C52.5728 69.5993 52.1252 68.4112 51.7354 67.1507L49.8247 67.7414ZM53.1309 75.1187C53.8579 76.3024 54.6475 77.4024 55.4905 78.4242L57.0332 77.1515C56.2487 76.2005 55.5132 75.176 54.8352 74.0721L53.1309 75.1187ZM58.2945 81.3748C59.3059 82.3007 60.366 83.1419 61.4629 83.9059L62.606 82.2647C61.5783 81.549 60.5879 80.7628 59.6449 79.8996L58.2945 81.3748ZM64.9258 86.0124C66.1253 86.6471 67.351 87.2071 68.59 87.7005L69.3299 85.8424C68.1528 85.3737 66.9928 84.8434 65.8613 84.2447L64.9258 86.0124ZM72.3996 89.0083C73.701 89.3889 75.0035 89.7069 76.2932 89.9713L76.6949 88.0121C75.4546 87.7578 74.2055 87.4527 72.961 87.0887L72.3996 89.0083ZM80.2442 90.6305C81.6092 90.8088 82.9426 90.9342 84.2262 91.0181L84.3566 89.0224C83.1123 88.941 81.8219 88.8196 80.5032 88.6474L80.2442 90.6305ZM88.2155 91.1595C89.6664 91.1685 91.0093 91.1316 92.2082 91.0711L92.1073 89.0736C90.9424 89.1325 89.6376 89.1683 88.2279 89.1595L88.2155 91.1595ZM96.1937 90.7508C96.8167 90.6807 97.3066 90.6149 97.6429 90.5663C97.811 90.542 97.9407 90.522 98.0295 90.5079C98.0738 90.5008 98.108 90.4952 98.1315 90.4913C98.1433 90.4893 98.1524 90.4878 98.1589 90.4867C98.1621 90.4862 98.1647 90.4857 98.1666 90.4854C98.1675 90.4853 98.1683 90.4851 98.1689 90.485C98.1692 90.485 98.1695 90.4849 98.1697 90.4849C98.1698 90.4849 98.1699 90.4848 98.17 90.4848C98.17 90.4848 98.1701 90.4848 98.1701 90.4848C98.1701 90.4848 98.1702 90.4848 98 89.4994C97.8298 88.514 97.8298 88.514 97.8299 88.514C97.8299 88.514 97.8299 88.5139 97.83 88.5139C97.83 88.5139 97.83 88.5139 97.8301 88.5139C97.8301 88.5139 97.8301 88.5139 97.8301 88.5139C97.83 88.5139 97.8298 88.514 97.8294 88.514C97.8285 88.5142 97.8271 88.5144 97.8249 88.5148C97.8206 88.5155 97.8136 88.5167 97.804 88.5183C97.7848 88.5215 97.7551 88.5264 97.7153 88.5327C97.6356 88.5454 97.5152 88.564 97.3568 88.5869C97.0398 88.6327 96.5707 88.6957 95.97 88.7633L96.1937 90.7508Z" fill="#00131A"/>
</svg>
